<?xml version="1.0" encoding="UTF-8" standalone="no"?>
<svg
   xmlns:dc="http://purl.org/dc/elements/1.1/"
   xmlns:cc="http://creativecommons.org/ns#"
   xmlns:rdf="http://www.w3.org/1999/02/22-rdf-syntax-ns#"
   xmlns:svg="http://www.w3.org/2000/svg"
   xmlns="http://www.w3.org/2000/svg"
   viewBox="0 0 666.66669 666.66669"
   height="666.66669"
   width="666.66669"
   xml:space="preserve"
   id="svg2"
   version="1.1"><metadata
     id="metadata8"><rdf:RDF><cc:Work
         rdf:about=""><dc:format>image/svg+xml</dc:format><dc:type
           rdf:resource="http://purl.org/dc/dcmitype/StillImage" /></cc:Work></rdf:RDF></metadata><defs
     id="defs6"><clipPath
       id="clipPath20"
       clipPathUnits="userSpaceOnUse"><path
         id="path18"
         d="M 0,500 H 500 V 0 H 0 Z" /></clipPath><clipPath
       id="clipPath160"
       clipPathUnits="userSpaceOnUse"><path
         id="path158"
         d="M 0,500 H 500 V 0 H 0 Z" /></clipPath><clipPath
       id="clipPath172"
       clipPathUnits="userSpaceOnUse"><path
         id="path170"
         d="M 0,500 H 500 V 0 H 0 Z" /></clipPath><clipPath
       id="clipPath188"
       clipPathUnits="userSpaceOnUse"><path
         id="path186"
         d="m 155.419,205.554 h 32.788 v -31.998 h -32.788 z" /></clipPath><clipPath
       id="clipPath224"
       clipPathUnits="userSpaceOnUse"><path
         id="path222"
         d="m 103.505,153.197 h 96.724 V 33.8787 h -96.724 z" /></clipPath><clipPath
       id="clipPath252"
       clipPathUnits="userSpaceOnUse"><path
         id="path250"
         d="m 219.652,184.463 h 35.369 v -35.005 h -35.369 z" /></clipPath><clipPath
       id="clipPath268"
       clipPathUnits="userSpaceOnUse"><path
         id="path266"
         d="m 290.255,200.26 h 18.258 v -85.032 h -18.258 z" /></clipPath><clipPath
       id="clipPath432"
       clipPathUnits="userSpaceOnUse"><path
         id="path430"
         d="M 0,500 H 500 V 0 H 0 Z" /></clipPath><clipPath
       id="clipPath456"
       clipPathUnits="userSpaceOnUse"><path
         id="path454"
         d="M 0,500 H 500 V 0 H 0 Z" /></clipPath><clipPath
       id="clipPath484"
       clipPathUnits="userSpaceOnUse"><path
         id="path482"
         d="M 0,500 H 500 V 0 H 0 Z" /></clipPath></defs><g
     transform="matrix(1.3333333,0,0,-1.3333333,0,666.66667)"
     id="g10"><path
       id="path12"
       style="fill:#fafafa;fill-opacity:1;fill-rule:nonzero;stroke:none"
       d="M 247.472,270.606 H 39.997 v 185.619 h 207.475 z" /><g
       id="g14"><g
         clip-path="url(#clipPath20)"
         id="g16"><g
           transform="translate(247.4728,270.6057)"
           id="g22"><path
             id="path24"
             style="fill:#e1e1e1;fill-opacity:1;fill-rule:nonzero;stroke:none"
             d="m 0,0 c 0,0 -0.035,1.19 -0.053,3.445 -0.012,2.278 -0.03,5.608 -0.054,9.946 -0.028,8.715 -0.069,21.453 -0.122,37.679 -0.058,32.432 -0.142,78.775 -0.242,134.549 L 0,185.149 c -59.752,-0.024 -131.06,-0.053 -207.457,-0.084 h -0.018 l 0.554,0.554 C -206.945,118.088 -206.968,54.543 -206.987,0 l -0.488,0.488 C -145.581,0.387 -93.778,0.301 -57.414,0.242 -39.221,0.187 -24.897,0.143 -15.09,0.113 -10.205,0.088 -6.451,0.069 -3.886,0.056 -2.63,0.044 -1.671,0.034 -0.996,0.028 -0.345,0.019 0,0 0,0 c 0,0 -0.308,-0.019 -0.941,-0.028 -0.662,-0.006 -1.604,-0.015 -2.836,-0.027 -2.543,-0.014 -6.265,-0.032 -11.109,-0.057 -9.782,-0.031 -24.069,-0.074 -42.215,-0.129 -36.439,-0.06 -88.351,-0.145 -150.374,-0.247 l -0.488,-0.001 V 0 c -0.02,54.543 -0.042,118.088 -0.067,185.619 v 0.555 h 0.555 0.018 C -131.06,186.143 -59.752,186.114 0,186.09 H 0.471 L 0.47,185.619 C 0.37,129.721 0.287,83.275 0.228,50.772 0.176,34.592 0.135,21.889 0.106,13.199 0.083,8.9 0.065,5.6 0.052,3.343 0.035,1.121 0,0 0,0" /></g><g
           transform="translate(119.5509,423.2443)"
           id="g26"><path
             id="path28"
             style="fill:#e1e1e1;fill-opacity:1;fill-rule:nonzero;stroke:none"
             d="m 0,0 c 0,-0.306 -10.92,-0.555 -24.388,-0.555 -13.473,0 -24.391,0.249 -24.391,0.555 0,0.306 10.918,0.554 24.391,0.554 C -10.92,0.554 0,0.306 0,0" /></g><g
           transform="translate(207.4611,409.3073)"
           id="g30"><path
             id="path32"
             style="fill:#e1e1e1;fill-opacity:1;fill-rule:nonzero;stroke:none"
             d="m 0,0 c 0,-0.307 -30.001,-0.555 -67.001,-0.555 -37.014,0 -67.009,0.248 -67.009,0.555 0,0.306 29.995,0.554 67.009,0.554 C -30.001,0.554 0,0.306 0,0" /></g><path
           id="path34"
           style="fill:#e1e1e1;fill-opacity:1;fill-rule:nonzero;stroke:none"
           d="m 79.87,376.958 h -8.741 v 8.741 h 8.741 z" /><path
           id="path36"
           style="fill:#e1e1e1;fill-opacity:1;fill-rule:nonzero;stroke:none"
           d="m 101.385,376.958 h -8.741 v 8.741 h 8.741 z" /><path
           id="path38"
           style="fill:#e1e1e1;fill-opacity:1;fill-rule:nonzero;stroke:none"
           d="m 123.298,377.355 h -8.741 v 8.741 h 8.741 z" /><path
           id="path40"
           style="fill:#e1e1e1;fill-opacity:1;fill-rule:nonzero;stroke:none"
           d="m 144.418,376.958 h -8.741 v 8.741 h 8.741 z" /><path
           id="path42"
           style="fill:#e1e1e1;fill-opacity:1;fill-rule:nonzero;stroke:none"
           d="m 165.934,376.958 h -8.741 v 8.741 h 8.741 z" /><path
           id="path44"
           style="fill:#e1e1e1;fill-opacity:1;fill-rule:nonzero;stroke:none"
           d="m 187.45,376.958 h -8.741 v 8.741 h 8.741 z" /><path
           id="path46"
           style="fill:#ececec;fill-opacity:1;fill-rule:nonzero;stroke:none"
           d="m 208.965,376.958 h -8.741 v 8.741 h 8.741 z" /><path
           id="path48"
           style="fill:#ececec;fill-opacity:1;fill-rule:nonzero;stroke:none"
           d="m 79.87,358.376 h -8.741 v 8.741 h 8.741 z" /><path
           id="path50"
           style="fill:#e1e1e1;fill-opacity:1;fill-rule:nonzero;stroke:none"
           d="m 101.385,358.376 h -8.741 v 8.741 h 8.741 z" /><path
           id="path52"
           style="fill:#ececec;fill-opacity:1;fill-rule:nonzero;stroke:none"
           d="m 122.902,358.376 h -8.741 v 8.741 h 8.741 z" /><path
           id="path54"
           style="fill:#e1e1e1;fill-opacity:1;fill-rule:nonzero;stroke:none"
           d="m 144.418,358.376 h -8.741 v 8.741 h 8.741 z" /><path
           id="path56"
           style="fill:#e1e1e1;fill-opacity:1;fill-rule:nonzero;stroke:none"
           d="m 165.934,358.376 h -8.741 v 8.741 h 8.741 z" /><path
           id="path58"
           style="fill:#e1e1e1;fill-opacity:1;fill-rule:nonzero;stroke:none"
           d="m 187.846,358.772 h -8.741 v 8.741 h 8.741 z" /><path
           id="path60"
           style="fill:#e1e1e1;fill-opacity:1;fill-rule:nonzero;stroke:none"
           d="m 208.965,358.376 h -8.741 v 8.741 h 8.741 z" /><path
           id="path62"
           style="fill:#e1e1e1;fill-opacity:1;fill-rule:nonzero;stroke:none"
           d="m 79.87,339.793 h -8.741 v 8.741 h 8.741 z" /><path
           id="path64"
           style="fill:#e1e1e1;fill-opacity:1;fill-rule:nonzero;stroke:none"
           d="m 101.782,340.19 h -8.741 v 8.741 h 8.741 z" /><path
           id="path66"
           style="fill:#e1e1e1;fill-opacity:1;fill-rule:nonzero;stroke:none"
           d="m 122.902,339.793 h -8.741 v 8.741 h 8.741 z" /><path
           id="path68"
           style="fill:#ececec;fill-opacity:1;fill-rule:nonzero;stroke:none"
           d="m 144.418,339.793 h -8.741 v 8.741 h 8.741 z" /><path
           id="path70"
           style="fill:#e1e1e1;fill-opacity:1;fill-rule:nonzero;stroke:none"
           d="m 165.934,339.793 h -8.741 v 8.741 h 8.741 z" /><path
           id="path72"
           style="fill:#e1e1e1;fill-opacity:1;fill-rule:nonzero;stroke:none"
           d="m 187.45,339.793 h -8.741 v 8.741 h 8.741 z" /><path
           id="path74"
           style="fill:#e1e1e1;fill-opacity:1;fill-rule:nonzero;stroke:none"
           d="m 208.965,339.793 h -8.741 v 8.741 h 8.741 z" /><path
           id="path76"
           style="fill:#e1e1e1;fill-opacity:1;fill-rule:nonzero;stroke:none"
           d="m 79.87,321.21 h -8.741 v 8.741 h 8.741 z" /><path
           id="path78"
           style="fill:#e1e1e1;fill-opacity:1;fill-rule:nonzero;stroke:none"
           d="m 101.385,321.21 h -8.741 v 8.741 h 8.741 z" /><path
           id="path80"
           style="fill:#e1e1e1;fill-opacity:1;fill-rule:nonzero;stroke:none"
           d="m 122.902,321.21 h -8.741 v 8.741 h 8.741 z" /><path
           id="path82"
           style="fill:#e1e1e1;fill-opacity:1;fill-rule:nonzero;stroke:none"
           d="m 144.815,321.607 h -8.741 v 8.741 h 8.741 z" /><path
           id="path84"
           style="fill:#e1e1e1;fill-opacity:1;fill-rule:nonzero;stroke:none"
           d="m 165.934,321.21 h -8.741 v 8.741 h 8.741 z" /><path
           id="path86"
           style="fill:#ececec;fill-opacity:1;fill-rule:nonzero;stroke:none"
           d="m 187.45,321.21 h -8.741 v 8.741 h 8.741 z" /><path
           id="path88"
           style="fill:#e1e1e1;fill-opacity:1;fill-rule:nonzero;stroke:none"
           d="m 208.965,321.21 h -8.741 v 8.741 h 8.741 z" /><path
           id="path90"
           style="fill:#e1e1e1;fill-opacity:1;fill-rule:nonzero;stroke:none"
           d="m 79.87,302.628 h -8.741 v 8.741 h 8.741 z" /><path
           id="path92"
           style="fill:#ececec;fill-opacity:1;fill-rule:nonzero;stroke:none"
           d="m 101.385,302.628 h -8.741 v 8.741 h 8.741 z" /><path
           id="path94"
           style="fill:#e1e1e1;fill-opacity:1;fill-rule:nonzero;stroke:none"
           d="m 122.902,302.628 h -8.741 v 8.741 h 8.741 z" /><path
           id="path96"
           style="fill:#e1e1e1;fill-opacity:1;fill-rule:nonzero;stroke:none"
           d="m 144.418,302.628 h -8.741 v 8.741 h 8.741 z" /><path
           id="path98"
           style="fill:#e1e1e1;fill-opacity:1;fill-rule:nonzero;stroke:none"
           d="m 165.934,302.628 h -8.741 v 8.741 h 8.741 z" /><path
           id="path100"
           style="fill:#e1e1e1;fill-opacity:1;fill-rule:nonzero;stroke:none"
           d="m 187.846,303.025 h -8.741 v 8.741 h 8.741 z" /><path
           id="path102"
           style="fill:#e1e1e1;fill-opacity:1;fill-rule:nonzero;stroke:none"
           d="m 208.965,302.628 h -8.741 v 8.741 h 8.741 z" /><g
           transform="translate(430.1823,206.7204)"
           id="g104"><path
             id="path106"
             style="fill:#ececec;fill-opacity:1;fill-rule:nonzero;stroke:none"
             d="m 0,0 c 9.244,4.77 20.13,5.39 30.394,3.693 5.513,-0.912 11.262,-2.561 15.014,-6.703 3.752,-4.141 4.463,-11.43 0.155,-14.989 -2.565,-2.119 -6.141,-2.44 -9.467,-2.402 -8.034,0.093 -16.95,1.508 -23.368,-3.326 -3.663,-2.758 -6.1,-7.343 -10.479,-8.7 -4.283,-1.327 -9.117,1.201 -11.389,5.068 -2.271,3.866 -2.347,8.699 -1.288,13.055 0,0 1.115,9.498 10.428,14.304" /></g><g
           transform="translate(409.0016,247.6071)"
           id="g108"><path
             id="path110"
             style="fill:#ececec;fill-opacity:1;fill-rule:nonzero;stroke:none"
             d="m 0,0 c 5.653,-8.073 16.64,-5.4 21.734,-0.473 5.094,4.929 7.247,12.072 9.207,18.883 4.479,15.563 8.994,31.888 5.664,47.736 -0.996,4.739 -2.767,9.464 -6.096,12.979 -3.33,3.515 -8.449,5.606 -13.131,4.37 C 11.839,82.031 8.396,76.605 5.907,71.443 -1.407,56.272 -5.28,39.452 -5.338,22.609 -5.365,14.744 -4.437,6.494 0,0" /></g><g
           transform="translate(393.4772,236.0222)"
           id="g112"><path
             id="path114"
             style="fill:#ececec;fill-opacity:1;fill-rule:nonzero;stroke:none"
             d="m 0,0 c 6.139,7.285 7.303,17.91 4.572,27.035 -2.731,9.127 -8.902,16.889 -16.012,23.228 -8.338,7.431 -18.139,13.213 -28.674,16.918 -4.147,1.458 -8.52,2.608 -12.896,2.191 -4.375,-0.418 -8.781,-2.655 -10.822,-6.548 -3.017,-5.755 -0.124,-12.736 3.005,-18.431 5.514,-10.034 11.817,-19.632 18.834,-28.679 5.644,-7.277 12.11,-14.456 20.714,-17.745 8.602,-3.288 17.539,-2.902 22.098,3.064" /></g><g
           transform="translate(408.6188,125.8141)"
           id="g116"><path
             id="path118"
             style="fill:#e1e1e1;fill-opacity:1;fill-rule:nonzero;stroke:none"
             d="m 0,0 c 0.105,-0.006 0.277,1.302 0.511,3.669 0.26,2.67 0.587,6.022 0.974,10.012 0.467,4.213 1.082,9.226 2.253,14.686 1.166,5.446 2.992,11.348 5.338,17.333 2.429,5.95 5.39,11.359 8.851,15.684 3.436,4.345 7.432,7.489 11.19,9.303 3.744,1.849 7.103,2.6 9.424,2.934 2.341,0.24 3.651,0.425 3.652,0.529 0.001,0.105 -1.312,0.121 -3.717,0.057 C 36.094,74.049 32.597,73.445 28.649,71.65 24.69,69.895 20.451,66.701 16.846,62.267 13.212,57.851 10.143,52.323 7.671,46.268 5.285,40.177 3.486,34.214 2.371,28.65 1.26,23.096 0.752,18.027 0.419,13.778 0.101,9.527 -0.02,6.084 -0.077,3.704 -0.131,1.324 -0.104,0.006 0,0" /></g><g
           transform="translate(409.3082,133.5182)"
           id="g120"><path
             id="path122"
             style="fill:#e1e1e1;fill-opacity:1;fill-rule:nonzero;stroke:none"
             d="M 0,0 C 0.053,0.003 0.085,0.589 0.099,1.702 0.096,2.981 0.091,4.593 0.086,6.57 c -0.012,4.225 -0.01,10.339 0.217,17.888 0.374,15.1 1.674,31.35 4.184,54.259 2.378,21.543 5.57,46.613 8.938,62.913 0.722,3.707 1.45,7.044 2.135,9.964 0.652,2.928 1.21,5.452 1.748,7.494 0.463,1.923 0.838,3.489 1.137,4.732 0.244,1.087 0.348,1.665 0.298,1.68 -0.05,0.015 -0.252,-0.535 -0.592,-1.596 -0.371,-1.225 -0.838,-2.769 -1.413,-4.665 -0.627,-2.023 -1.269,-4.531 -2.003,-7.447 -0.763,-2.909 -1.566,-6.237 -2.357,-9.939 C 9.045,127.083 5.517,106.441 2.981,83.477 0.466,60.519 -0.668,39.615 -0.768,24.479 -0.857,16.91 -0.696,10.783 -0.504,6.556 -0.383,4.579 -0.284,2.969 -0.206,1.69 -0.121,0.579 -0.052,-0.003 0,0" /></g><g
           transform="translate(409.4098,173.8347)"
           id="g124"><path
             id="path126"
             style="fill:#e1e1e1;fill-opacity:1;fill-rule:nonzero;stroke:none"
             d="m 0,0 c 0.104,0.004 0.087,1.811 -0.036,5.086 -0.187,3.268 -0.636,7.991 -1.557,13.777 -0.976,5.772 -2.34,12.625 -4.481,20.074 -0.928,3.404 -3.11,11.561 -8.394,23.751 -6.963,16.517 -16.422,30.02 -24.65,38.384 -1.931,2.22 -4.08,3.822 -5.8,5.391 -0.89,0.752 -1.676,1.502 -2.477,2.097 -0.805,0.555 -1.555,1.071 -2.25,1.55 -2.709,1.852 -4.225,2.829 -4.281,2.741 -0.243,-0.33 6.067,-4.043 14.033,-12.519 7.934,-8.457 17.129,-21.868 24.036,-38.245 3.85,-8.883 6.536,-16.807 8.441,-23.534 C -5.215,31.178 -3.753,24.394 -2.648,18.68 -1.599,12.952 -0.99,8.275 -0.623,5.037 -0.321,1.795 -0.104,-0.004 0,0" /></g><g
           transform="translate(370.441,102.7155)"
           id="g128"><path
             id="path130"
             style="fill:#e1e1e1;fill-opacity:1;fill-rule:nonzero;stroke:none"
             d="M 0,0 4.04,-55.347 H 75.143 L 79.183,0 Z" /></g><path
           id="path132"
           style="fill:#e1e1e1;fill-opacity:1;fill-rule:nonzero;stroke:none"
           d="m 363.574,102.716 h 94.533 v 21.815 h -94.533 z" /><g
           transform="translate(363.5739,49.487)"
           id="g134"><path
             id="path136"
             style="fill:#ececec;fill-opacity:1;fill-rule:nonzero;stroke:none"
             d="m 0,0 v -6.047 h 4.441 88.53 V 0 Z" /></g><g
           transform="translate(372.3688,32.7975)"
           id="g138"><path
             id="path140"
             style="fill:#e1e1e1;fill-opacity:1;fill-rule:nonzero;stroke:none"
             d="M 0,0 -4.354,10.643 H 80.79 L 75.71,0 Z" /></g><g
           transform="translate(448.3033,84.6276)"
           id="g142"><path
             id="path144"
             style="fill:#f5f5f5;fill-opacity:1;fill-rule:nonzero;stroke:none"
             d="M 0,0 C 0.016,-0.014 -0.098,-0.186 -0.332,-0.509 -0.614,-0.883 -0.964,-1.347 -1.395,-1.918 -2.404,-3.21 -3.791,-4.985 -5.536,-7.219 l -0.185,-0.235 -0.177,0.246 c -2.604,3.601 -6.082,8.411 -10.177,14.074 h 0.586 c -3.028,-4.286 -6.399,-9.06 -10.019,-14.185 l -0.314,-0.446 -0.352,0.418 c -3.697,4.4 -7.713,9.177 -11.882,14.138 l 0.685,0.009 c -0.206,-0.26 -0.429,-0.541 -0.653,-0.822 -3.685,-4.62 -7.251,-9.091 -10.624,-13.32 l -0.355,-0.443 -0.327,0.462 c -3.607,5.103 -6.977,9.872 -10.024,14.182 l 0.583,-0.027 C -63.71,1.203 -67.899,-3.569 -71.115,-7.233 l -0.219,-0.25 -0.168,0.281 c -1.627,2.734 -2.925,4.914 -3.865,6.494 -0.404,0.705 -0.731,1.274 -0.991,1.729 -0.219,0.396 -0.323,0.605 -0.303,0.617 0.018,0.011 0.159,-0.175 0.413,-0.548 0.289,-0.438 0.65,-0.986 1.098,-1.664 0.987,-1.552 2.349,-3.692 4.057,-6.376 l -0.386,0.031 c 3.165,3.708 7.287,8.54 12.147,14.236 l 0.307,0.36 0.277,-0.387 c 3.074,-4.292 6.474,-9.038 10.113,-14.118 l -0.68,0.017 c 3.364,4.236 6.922,8.713 10.598,13.34 0.224,0.282 0.447,0.562 0.654,0.822 l 0.338,0.423 0.347,-0.415 c 4.158,-4.969 8.162,-9.756 11.85,-14.165 l -0.666,-0.026 c 3.656,5.101 7.061,9.851 10.119,14.115 l 0.297,0.414 0.289,-0.414 c 4.008,-5.724 7.412,-10.587 9.961,-14.226 l -0.362,0.01 c 1.816,2.176 3.258,3.907 4.309,5.165 0.468,0.542 0.848,0.982 1.154,1.336 C -0.161,-0.135 -0.017,0.013 0,0" /></g><g
           transform="translate(450.6129,103.0807)"
           id="g146"><path
             id="path148"
             style="fill:#f5f5f5;fill-opacity:1;fill-rule:nonzero;stroke:none"
             d="m 0,0 c 0,-0.244 -17.816,-0.442 -39.788,-0.442 -21.98,0 -39.792,0.198 -39.792,0.442 0,0.245 17.812,0.442 39.792,0.442 C -17.816,0.442 0,0.245 0,0" /></g><g
           transform="translate(454.2047,42.8434)"
           id="g150"><path
             id="path152"
             style="fill:#f5f5f5;fill-opacity:1;fill-rule:nonzero;stroke:none"
             d="m 0,0 c 0,-0.244 -19.362,-0.442 -43.241,-0.442 -23.889,0 -43.246,0.198 -43.246,0.442 0,0.244 19.357,0.442 43.246,0.442 C -19.362,0.442 0,0.244 0,0" /></g></g></g><g
       id="g154"><g
         clip-path="url(#clipPath160)"
         id="g156"><g
           transform="translate(77.5138,356.5392)"
           id="g162"><path
             id="path164"
             style="fill:#ececec;fill-opacity:1;fill-rule:nonzero;stroke:none"
             d="m 0,0 1.955,3.542 c 16.482,29.865 47.917,48.874 82.024,48.341 4.384,-0.068 8.764,-0.449 13.101,-1.156 31.224,-5.088 59.208,-26.918 71.743,-55.966 7.372,-17.083 10.141,-37.02 23.233,-50.241 17.037,-17.207 44.563,-16.485 68.705,-14.609 24.143,1.875 51.69,2.528 68.652,-14.753 10.623,-10.823 14.583,-26.736 14.476,-41.901 -0.281,-40.149 -26.866,-77.281 -61.973,-96.761 -35.109,-19.482 -77.35,-23.056 -117.052,-17.067 -55.616,8.391 -109.429,36.062 -143.104,81.113 C -11.915,-114.407 -22.853,-51.395 0,0" /></g></g></g><g
       id="g166"><g
         clip-path="url(#clipPath172)"
         id="g168"><g
           transform="translate(197.7628,252.8615)"
           id="g174"><path
             id="path176"
             style="fill:#ff4f5b;fill-opacity:1;fill-rule:nonzero;stroke:none"
             d="m 0,0 -7.997,-4.292 -17.704,-13.629 c 0,0 -54.23,-7.202 -56.313,-8.764 -2.083,-1.562 -29.052,-14.368 -32.697,-31.552 -3.645,-17.183 -11.145,-129.302 -11.145,-129.302 l 9.841,-33.127 197.509,-0.307 46.319,0.658 c 0,0 17.799,41.568 17.799,53.024 0,11.456 -5.207,97.373 -5.207,97.373 L 84.86,-30.751 Z" /></g><g
           transform="translate(171.5504,235.7497)"
           id="g178"><path
             id="path180"
             style="fill:#1a2e35;fill-opacity:1;fill-rule:nonzero;stroke:none"
             d="m 0,0 c 0.014,-0.011 -0.081,-0.17 -0.275,-0.464 -0.232,-0.338 -0.519,-0.756 -0.869,-1.266 -0.78,-1.081 -1.834,-2.697 -3.069,-4.73 -0.596,-1.03 -1.28,-2.139 -1.907,-3.391 -0.674,-1.225 -1.311,-2.578 -1.972,-4.003 -1.284,-2.87 -2.527,-6.1 -3.59,-9.571 -2.094,-6.959 -3.17,-13.473 -3.893,-18.181 -0.33,-2.304 -0.602,-4.196 -0.802,-5.591 -0.092,-0.612 -0.166,-1.115 -0.227,-1.52 -0.058,-0.346 -0.097,-0.528 -0.114,-0.526 -0.018,0.002 -0.014,0.187 0.01,0.538 0.034,0.409 0.077,0.915 0.129,1.532 0.12,1.329 0.334,3.25 0.64,5.618 0.63,4.729 1.652,11.279 3.759,18.282 1.069,3.492 2.334,6.741 3.652,9.618 0.677,1.43 1.333,2.784 2.028,4.009 0.647,1.25 1.354,2.355 1.973,3.378 1.282,2.019 2.387,3.611 3.219,4.657 0.382,0.488 0.696,0.887 0.95,1.211 C -0.137,-0.127 -0.014,0.011 0,0" /></g><g
           id="g182"><g
             id="g184" /><g
             id="g196"><g
               style="opacity:0.30000299"
               id="g194"
               clip-path="url(#clipPath188)"><g
                 id="g192"
                 transform="translate(172.7829,202.7917)"><path
                   id="path190"
                   style="fill:#000000;fill-opacity:1;fill-rule:nonzero;stroke:none"
                   d="M 0,0 C -0.329,1.055 -0.754,2.247 -1.78,2.66 -2.586,2.984 -2.262,2.464 -3.065,2.133 -10.567,-0.961 -14.188,-7.896 -17.363,-15.709 l 0.18,0.187 c -0.47,-1.197 0.024,-2.923 1.228,-3.625 1.691,-0.986 3.865,-0.454 5.603,0.446 1.738,0.899 3.329,2.148 5.225,2.635 4.108,1.051 8.191,-1.76 11.089,-4.856 2.899,-3.095 5.509,-6.78 9.462,-8.313 C 8.559,-20.539 3.303,-10.576 0,0" /></g></g></g></g><g
           transform="translate(154.8322,186.5065)"
           id="g198"><path
             id="path200"
             style="fill:#1a2e35;fill-opacity:1;fill-rule:nonzero;stroke:none"
             d="m 0,0 c 0,0 0.892,2.386 3.174,6.36 1.154,1.976 2.666,4.35 4.763,6.846 1.071,1.227 2.277,2.495 3.736,3.646 1.468,1.118 3.214,2.154 5.28,2.534 l 0.154,0.028 0.058,-0.149 c 1.257,-3.274 2.576,-6.845 4.098,-10.605 1.528,-3.755 3.283,-7.703 5.591,-11.579 2.293,-3.88 5.15,-7.672 8.6,-11.116 3.441,-3.454 7.442,-6.555 11.778,-9.339 1.445,-0.857 2.849,-1.762 4.295,-2.562 1.459,-0.777 2.905,-1.547 4.334,-2.309 l -0.259,-0.017 c 2.452,1.694 4.861,3.356 7.219,4.984 1.179,0.813 2.346,1.617 3.498,2.412 1.16,0.788 2.29,1.579 3.359,2.42 4.291,3.347 8.003,6.978 11.204,10.531 l 0.016,0.019 0.017,0.012 c 4.45,3.419 7.9,7.334 10.273,11.211 2.424,3.857 3.813,7.618 4.631,10.768 0.811,3.16 1.068,5.722 1.178,7.463 0.061,0.871 0.044,1.542 0.068,1.992 0.015,0.451 0.039,0.684 0.039,0.684 0,0 0.021,-0.232 0.029,-0.684 C 97.131,23.099 97.17,22.427 97.13,21.552 97.064,19.803 96.847,17.224 96.066,14.032 95.28,10.853 93.913,7.046 91.493,3.139 89.125,-0.79 85.662,-4.763 81.182,-8.234 l 0.033,0.031 c -3.212,-3.596 -6.919,-7.244 -11.236,-10.63 -1.078,-0.852 -2.214,-1.65 -3.37,-2.438 -1.152,-0.798 -2.318,-1.606 -3.498,-2.422 -2.358,-1.632 -4.768,-3.3 -7.221,-4.997 l -0.126,-0.088 -0.134,0.071 c -1.437,0.765 -2.89,1.537 -4.357,2.317 -1.454,0.804 -2.867,1.714 -4.32,2.577 -4.363,2.801 -8.395,5.928 -11.862,9.417 -3.476,3.479 -6.354,7.315 -8.655,11.23 -2.315,3.913 -4.066,7.889 -5.583,11.66 -1.511,3.777 -2.811,7.356 -4.048,10.633 l 0.212,-0.121 C 15.042,18.655 13.333,17.664 11.885,16.576 10.445,15.457 9.241,14.212 8.17,13.006 6.069,10.55 4.536,8.203 3.359,6.251 2.188,4.292 1.371,2.715 0.829,1.641 0.571,1.119 0.37,0.712 0.222,0.412 0.083,0.136 0.009,-0.004 0,0" /></g><g
           transform="translate(266.6051,211.1286)"
           id="g202"><path
             id="path204"
             style="fill:#1a2e35;fill-opacity:1;fill-rule:nonzero;stroke:none"
             d="m 0,0 c 0,0 0.333,-5.836 -0.722,-15.252 -0.527,-4.702 -1.477,-10.28 -3.05,-16.367 -1.562,-6.088 -3.788,-12.662 -6.62,-19.378 l -0.38,-0.904 -0.119,0.979 c -0.069,0.585 -0.125,1.218 -0.219,1.85 -0.498,3.693 -1.369,7.245 -2.521,10.564 -0.576,1.66 -1.223,3.263 -1.926,4.8 -0.349,0.77 -0.718,1.52 -1.095,2.256 -0.387,0.736 -0.743,1.464 -1.223,2.086 -0.47,0.623 -1.043,1.18 -1.718,1.433 -0.674,0.259 -1.414,0.09 -1.967,-0.371 -0.561,-0.452 -1.027,-1.07 -1.526,-1.62 -0.492,-0.561 -0.975,-1.113 -1.45,-1.656 -1.9,-2.168 -3.671,-4.189 -5.29,-6.036 -3.227,-3.658 -5.847,-6.628 -7.689,-8.717 -0.896,-0.999 -1.602,-1.785 -2.11,-2.353 -0.229,-0.246 -0.413,-0.445 -0.559,-0.602 -0.128,-0.134 -0.197,-0.2 -0.204,-0.194 -0.007,0.005 0.049,0.084 0.164,0.229 0.136,0.166 0.307,0.376 0.52,0.637 0.49,0.582 1.171,1.39 2.036,2.417 1.812,2.113 4.39,5.121 7.564,8.824 1.605,1.86 3.36,3.896 5.243,6.078 0.471,0.546 0.951,1.101 1.438,1.665 0.499,0.553 0.944,1.165 1.579,1.687 0.615,0.535 1.592,0.778 2.411,0.454 0.818,-0.307 1.435,-0.927 1.939,-1.585 0.516,-0.664 0.889,-1.419 1.276,-2.151 0.383,-0.742 0.758,-1.498 1.114,-2.274 0.713,-1.549 1.37,-3.165 1.955,-4.84 1.17,-3.347 2.052,-6.932 2.554,-10.662 0.096,-0.638 0.153,-1.276 0.223,-1.867 l -0.499,0.076 c 2.825,6.692 5.058,13.236 6.64,19.295 1.593,6.057 2.577,11.607 3.149,16.291 0.58,4.684 0.812,8.493 0.916,11.123 0.068,1.314 0.069,2.337 0.103,3.029 0.013,0.322 0.025,0.58 0.034,0.787 C -0.019,-0.091 -0.009,0 0,0" /></g><g
           transform="translate(192.0211,238.7556)"
           id="g206"><path
             id="path208"
             style="fill:#1a2e35;fill-opacity:1;fill-rule:nonzero;stroke:none"
             d="m 0,0 c 0.006,-0.007 -0.045,-0.073 -0.151,-0.197 -0.128,-0.146 -0.286,-0.324 -0.478,-0.541 -0.446,-0.452 -1.019,-1.192 -1.757,-2.141 -1.427,-1.933 -3.23,-4.942 -4.793,-8.952 -1.597,-3.989 -2.93,-8.977 -3.59,-14.622 -0.622,-5.641 -0.554,-11.964 0.8,-18.382 0.638,-3.216 1.621,-6.276 2.796,-9.13 1.135,-2.876 2.604,-5.484 4.109,-7.887 3.102,-4.762 6.702,-8.476 10.003,-11.219 1.614,-1.426 3.254,-2.485 4.624,-3.506 1.456,-0.897 2.682,-1.716 3.729,-2.312 1.026,-0.564 1.838,-1.011 2.432,-1.338 0.253,-0.145 0.459,-0.263 0.627,-0.359 0.14,-0.084 0.21,-0.131 0.206,-0.139 -0.004,-0.008 -0.082,0.023 -0.23,0.091 -0.174,0.084 -0.388,0.188 -0.651,0.314 -0.606,0.306 -1.435,0.725 -2.484,1.255 -1.065,0.57 -2.312,1.368 -3.789,2.245 -1.394,1.004 -3.058,2.048 -4.698,3.465 -3.354,2.725 -7.016,6.446 -10.171,11.243 -1.532,2.419 -3.025,5.049 -4.179,7.952 -1.192,2.881 -2.189,5.972 -2.834,9.219 -1.367,6.481 -1.419,12.861 -0.767,18.544 0.692,5.687 2.072,10.702 3.725,14.704 1.619,4.021 3.486,7.027 4.973,8.936 0.769,0.938 1.37,1.659 1.842,2.091 0.209,0.204 0.379,0.37 0.518,0.507 C -0.07,-0.048 -0.006,0.007 0,0" /></g><g
           transform="translate(106.9381,142.6745)"
           id="g210"><path
             id="path212"
             style="fill:#1a2e35;fill-opacity:1;fill-rule:nonzero;stroke:none"
             d="M 0,0 C 0.012,0.007 0.077,-0.087 0.198,-0.287 0.34,-0.533 0.514,-0.834 0.734,-1.213 L 0.586,-1.264 c -0.713,3.357 -2.656,13.663 -4.86,25.848 -1.328,7.505 -2.529,14.297 -3.413,19.301 -0.404,2.42 -0.734,4.403 -0.977,5.859 -0.097,0.647 -0.176,1.175 -0.239,1.598 -0.049,0.366 -0.066,0.559 -0.049,0.563 0.018,0.003 0.07,-0.184 0.152,-0.545 0.089,-0.418 0.2,-0.94 0.336,-1.58 0.283,-1.448 0.668,-3.423 1.139,-5.83 0.924,-4.997 2.178,-11.778 3.564,-19.274 C -1.557,12.492 0.234,2.158 0.742,-1.235 l 0.076,-0.511 -0.224,0.46 C 0.403,-0.893 0.251,-0.58 0.127,-0.324 0.029,-0.112 -0.012,-0.006 0,0" /></g><g
           transform="translate(104.5289,144.7272)"
           id="g214"><path
             id="path216"
             style="fill:#1a2e35;fill-opacity:1;fill-rule:nonzero;stroke:none"
             d="m 0,0 c -0.13,-0.062 -2.648,5.006 -5.624,11.316 -2.977,6.314 -5.284,11.479 -5.154,11.54 0.13,0.062 2.648,-5.004 5.625,-11.317 C -2.177,5.229 0.13,0.062 0,0" /></g><g
           id="g218"><g
             id="g220" /><g
             id="g232"><g
               style="opacity:0.30000299"
               id="g230"
               clip-path="url(#clipPath224)"><g
                 id="g228"
                 transform="translate(103.505,34.7829)"><path
                   id="path226"
                   style="fill:#000000;fill-opacity:1;fill-rule:nonzero;stroke:none"
                   d="m 0,0 c 6.27,-3.151 20.8,2.41 26.084,9.342 5.284,6.93 6.813,15.941 7.96,24.581 1.728,13.019 2.962,26.105 3.696,39.22 10.757,-7.874 24.239,-11.947 37.555,-11.342 8.483,0.385 18.151,3.755 20.775,11.831 2.596,7.988 -2.993,16.201 -8.798,22.272 -5.526,5.781 -11.562,11.074 -18.013,15.798 -4.236,3.103 -8.872,6.043 -14.092,6.613 -5.63,0.616 -11.325,-1.692 -15.605,-5.401 -4.28,-3.708 -7.27,-8.707 -9.462,-13.93 C 23.411,83.041 23.772,65.186 22.407,47.95 21.042,30.714 19.213,12.859 3.942,1.639" /></g></g></g></g><g
           transform="translate(103.9103,34.7155)"
           id="g234"><path
             id="path236"
             style="fill:#1a2e35;fill-opacity:1;fill-rule:nonzero;stroke:none"
             d="m 0,0 c -0.004,0.012 0.143,0.083 0.429,0.209 0.319,0.138 0.737,0.317 1.261,0.544 1.047,0.588 2.598,1.45 4.28,2.942 3.411,2.901 7.616,7.844 11.554,14.403 l -0.028,-0.083 c 0.915,6.852 1.982,14.845 3.116,23.349 1.834,13.479 3.459,25.685 4.765,34.499 0.809,4.351 1.466,7.886 1.929,10.38 0.233,1.191 0.417,2.132 0.55,2.817 0.064,0.295 0.115,0.536 0.157,0.73 0.038,0.164 0.062,0.247 0.07,0.246 0.009,-0.002 0.003,-0.088 -0.018,-0.256 C 28.037,89.584 28.002,89.341 27.96,89.042 27.85,88.353 27.698,87.406 27.506,86.208 27.082,83.709 26.48,80.166 25.741,75.807 24.556,66.937 22.927,54.752 21.128,41.29 19.97,32.791 18.882,24.803 17.949,17.953 L 17.942,17.906 17.92,17.869 C 13.912,11.281 9.639,6.36 6.143,3.488 4.42,2.014 2.828,1.176 1.751,0.625 1.188,0.398 0.747,0.247 0.453,0.141 0.157,0.036 0.003,-0.012 0,0" /></g><g
           transform="translate(200.1652,32.5466)"
           id="g238"><path
             id="path240"
             style="fill:#1a2e35;fill-opacity:1;fill-rule:nonzero;stroke:none"
             d="M 0,0 C -0.009,-0.002 -0.04,0.104 -0.093,0.314 -0.15,0.553 -0.224,0.862 -0.317,1.252 -0.49,2.08 -0.823,3.289 -1.088,4.877 -1.68,8.041 -2.29,12.676 -2.465,18.435 c -0.164,5.755 0.111,12.63 1.078,20.182 0.92,7.559 2.452,15.791 4.229,24.384 1.706,8.616 3.855,16.712 5.595,24.104 1.765,7.387 2.903,14.15 3.207,19.881 0.298,5.731 -0.061,10.383 -0.498,13.562 -0.171,1.597 -0.445,2.816 -0.557,3.655 -0.06,0.397 -0.108,0.711 -0.144,0.952 -0.03,0.216 -0.041,0.327 -0.032,0.329 0.008,0.001 0.037,-0.106 0.084,-0.318 0.05,-0.239 0.114,-0.551 0.195,-0.943 0.145,-0.834 0.453,-2.05 0.656,-3.648 0.498,-3.179 0.916,-7.846 0.663,-13.608 C 11.753,101.205 10.646,94.401 8.904,86.997 7.186,79.581 5.057,71.503 3.352,62.896 1.576,54.308 0.033,46.094 -0.911,38.558 -1.901,31.028 -2.213,24.182 -2.097,18.444 -1.969,12.704 -1.417,8.079 -0.889,4.912 -0.654,3.322 -0.354,2.109 -0.215,1.274 -0.143,0.881 -0.085,0.567 -0.042,0.327 -0.005,0.112 0.009,0.002 0,0" /></g><g
           transform="translate(216.9933,145.3054)"
           id="g242"><path
             id="path244"
             style="fill:#1a2e35;fill-opacity:1;fill-rule:nonzero;stroke:none"
             d="M 0,0 C -0.126,0.084 1.6,2.836 3.516,6.345 5.441,9.851 6.83,12.786 6.968,12.726 7.032,12.697 6.766,11.925 6.245,10.715 5.724,9.504 4.938,7.859 3.972,6.095 3.005,4.331 2.043,2.783 1.304,1.692 0.565,0.602 0.058,-0.039 0,0" /></g><g
           id="g246"><g
             id="g248" /><g
             id="g260"><g
               style="opacity:0.30000299"
               id="g258"
               clip-path="url(#clipPath252)"><g
                 id="g256"
                 transform="translate(220.2164,149.4577)"><path
                   id="path254"
                   style="fill:#000000;fill-opacity:1;fill-rule:nonzero;stroke:none"
                   d="m 0,0 c 5.213,6.1 10.864,11.824 16.896,17.116 1.649,1.447 3.442,2.918 5.607,3.278 2.644,0.438 5.329,-0.924 7.162,-2.879 1.832,-1.955 2.97,-4.445 4.076,-6.885 2.62,6.446 -0.099,13.702 -2.798,20.116 -0.878,2.086 -2.402,4.564 -4.641,4.229 C 25.107,34.795 24.21,33.825 23.421,32.91 14.759,22.855 6.742,12.245 -0.564,1.166" /></g></g></g></g><g
           id="g262"><g
             id="g264" /><g
             id="g276"><g
               style="opacity:0.30000299"
               id="g274"
               clip-path="url(#clipPath268)"><g
                 id="g272"
                 transform="translate(308.1383,197.0915)"><path
                   id="path270"
                   style="fill:#000000;fill-opacity:1;fill-rule:nonzero;stroke:none"
                   d="M 0,0 0.374,3.169 C -3.434,2.804 -8.117,2.356 -11.16,0.038 c -3.549,-2.706 -4.947,-7.316 -6.142,-11.616 -2.719,-9.786 4.994,-60.137 4.602,-70.285 3.377,1.433 5.748,23.041 6.355,26.659 1.478,8.813 -1.512,14.314 -0.607,16.768 0.905,2.454 0.882,5.135 0.956,7.749 C -5.667,-19.006 -4.507,-10.782 0,0" /></g></g></g></g><g
           transform="translate(258.4342,358.6931)"
           id="g278"><path
             id="path280"
             style="fill:#1a2e35;fill-opacity:1;fill-rule:nonzero;stroke:none"
             d="m 0,0 c -4.841,6.002 -3.256,15.587 2.285,20.95 5.54,5.363 13.968,6.906 21.572,5.628 11.007,-1.85 20.914,-9.327 25.713,-19.404 2.592,-5.445 4.006,-11.883 8.766,-15.589 4.185,-3.256 9.935,-3.543 14.698,-5.874 6.383,-3.126 10.498,-9.809 11.959,-16.765 1.461,-6.956 0.584,-14.194 -0.889,-21.147 -1.351,-6.382 -3.153,-13.278 -0.412,-19.197 2.672,-5.772 8.917,-8.917 13.028,-13.772 7.733,-9.134 5.979,-24.677 -3.596,-31.857 -3.053,-2.289 -6.911,-4.03 -8.369,-7.556 -1.332,-3.22 -0.196,-6.871 -0.265,-10.354 -0.177,-8.968 -10.064,-16.346 -18.711,-13.96 -4.365,1.203 -8.387,4.425 -12.874,3.81 -4.456,-0.61 -7.431,-4.727 -11.053,-7.395 -7.124,-5.248 -18.036,-4.443 -24.311,1.795 -2.627,2.611 -4.738,6.167 -8.318,7.118 -3.573,0.947 -7.331,-1.105 -10.994,-0.606 -4.793,0.654 -7.944,5.414 -9.359,10.04 -1.415,4.627 -1.796,9.642 -4.189,13.847 -3.133,5.506 -9.098,8.624 -14.11,12.499 -11.063,8.552 -18.162,22.033 -18.954,35.993 -0.793,13.96 4.735,28.158 14.758,37.908" /></g><g
           transform="translate(191.361,238.7331)"
           id="g282"><path
             id="path284"
             style="fill:#ff9e77;fill-opacity:1;fill-rule:nonzero;stroke:none"
             d="m 0,0 c -9.567,-10.972 -13.339,-26.729 -9.777,-40.843 3.561,-14.114 15.367,-34.74 28.994,-39.859 8.838,6.477 20.197,15.525 28.438,22.747 5.334,4.674 8.162,11.506 10.805,18.086 1.524,3.796 3.072,7.9 2.115,11.877 -0.704,2.929 -2.688,5.372 -4.776,7.543 C 42.391,-6.505 21.957,0.311 2.863,-2.793" /></g><g
           transform="translate(231.8327,340.3244)"
           id="g286"><path
             id="path288"
             style="fill:#ff9e77;fill-opacity:1;fill-rule:nonzero;stroke:none"
             d="M 0,0 V 0 C 5.068,10.278 16.639,15.606 27.743,12.776 L 61.862,4.079 C 78.912,-1.417 92.261,-27.8 82.209,-50.914 74.272,-69.165 66.141,-92.097 57.984,-104.693 41.583,-130.02 19.165,-124.233 19.165,-124.233 l -12.102,-26.994 -49.469,46.392 z" /></g><g
           transform="translate(289.4293,282.2726)"
           id="g290"><path
             id="path292"
             style="fill:#1a2e35;fill-opacity:1;fill-rule:nonzero;stroke:none"
             d="m 0,0 c 0.644,0.242 2.316,-2.949 6.022,-4.731 3.677,-1.833 7.315,-1.245 7.498,-1.893 0.1,-0.296 -0.727,-0.896 -2.327,-1.184 -1.58,-0.294 -3.968,-0.166 -6.27,0.96 -2.3,1.129 -3.828,2.917 -4.522,4.326 C -0.314,-1.098 -0.308,-0.1 0,0" /></g><g
           transform="translate(250.7975,299.8625)"
           id="g294"><path
             id="path296"
             style="fill:#1a2e35;fill-opacity:1;fill-rule:nonzero;stroke:none"
             d="m 0,0 c 0.728,0.134 2.38,-3.415 6.362,-5.878 3.95,-2.511 8.008,-2.542 8.17,-3.236 0.09,-0.319 -0.855,-0.79 -2.646,-0.804 -1.765,-0.026 -4.399,0.52 -6.871,2.07 -2.472,1.552 -4.049,3.644 -4.73,5.203 C -0.413,-1.068 -0.345,-0.048 0,0" /></g><g
           transform="translate(267.1696,262.1374)"
           id="g298"><path
             id="path300"
             style="fill:#1a2e35;fill-opacity:1;fill-rule:nonzero;stroke:none"
             d="m 0,0 c 0.077,0.221 2.594,-0.412 6.596,-1.605 1.003,-0.327 1.997,-0.539 2.449,0.045 0.533,0.594 0.59,1.807 0.62,3.13 0.127,2.724 0.262,5.577 0.4,8.569 0.67,12.157 1.61,21.981 2.099,21.949 0.489,-0.031 0.344,-9.91 -0.327,-22.067 C 11.648,7.035 11.472,4.186 11.297,1.462 11.177,0.209 11.254,-1.305 10.126,-2.527 9.549,-3.13 8.613,-3.338 7.925,-3.231 7.226,-3.146 6.682,-2.917 6.193,-2.735 2.291,-1.251 -0.08,-0.22 0,0" /></g><g
           transform="translate(250.9538,216.0251)"
           id="g302"><path
             id="path304"
             style="fill:#ed7b54;fill-opacity:1;fill-rule:nonzero;stroke:none"
             d="m 0,0 c 0,0 -19.758,7.409 -33.079,26.372 0,0 0.748,-23.154 30.051,-33.156 z" /></g><g
           transform="translate(253.8952,312.6828)"
           id="g306"><path
             id="path308"
             style="fill:#1a2e35;fill-opacity:1;fill-rule:nonzero;stroke:none"
             d="m 0,0 c 0.629,1.01 4.536,-0.359 9.377,-0.788 4.833,-0.526 8.932,0.05 9.351,-1.064 0.179,-0.528 -0.702,-1.416 -2.465,-2.15 -1.748,-0.735 -4.396,-1.225 -7.297,-0.942 -2.899,0.29 -5.399,1.289 -6.97,2.352 C 0.41,-1.528 -0.279,-0.483 0,0" /></g><g
           transform="translate(297.4899,301.6755)"
           id="g310"><path
             id="path312"
             style="fill:#1a2e35;fill-opacity:1;fill-rule:nonzero;stroke:none"
             d="m 0,0 c 1.265,0.008 2.821,-3.102 5.516,-6.08 2.604,-3.058 5.497,-5.017 5.311,-6.255 -0.116,-0.574 -1.166,-0.817 -2.824,-0.326 -1.641,0.475 -3.833,1.784 -5.655,3.858 -1.819,2.075 -2.823,4.406 -3.069,6.08 C -0.979,-1.029 -0.59,-0.033 0,0" /></g><g
           transform="translate(258.4987,251.6877)"
           id="g314"><path
             id="path316"
             style="fill:#ed7b54;fill-opacity:1;fill-rule:nonzero;stroke:none"
             d="m 0,0 c 0,0 2.322,1.213 1.245,5.667 -1.077,4.456 -6.744,8.495 -10.332,4.83 0,0 -3.624,-0.28 -2.199,-4.457 1.426,-4.178 9.682,-10.077 11.222,-6.718" /></g><g
           transform="translate(257.149,248.2839)"
           id="g318"><path
             id="path320"
             style="fill:#1a2e35;fill-opacity:1;fill-rule:nonzero;stroke:none"
             d="m 0,0 c -0.661,0.114 0.345,4.463 -2.657,8.417 -2.992,3.961 -7.741,4.553 -7.633,5.169 0.002,0.287 1.228,0.604 3.197,0.201 1.934,-0.381 4.592,-1.651 6.429,-4.069 C 1.165,7.296 1.553,4.544 1.285,2.726 1.027,0.869 0.291,-0.095 0,0" /></g><g
           transform="translate(202.6583,354.5334)"
           id="g322"><path
             id="path324"
             style="fill:#1a2e35;fill-opacity:1;fill-rule:nonzero;stroke:none"
             d="m 0,0 c -5.305,-4.068 -8.459,-10.794 -8.195,-17.475 0.148,-3.738 1.06,-8.152 -1.695,-10.684 -2.803,-2.577 -7.217,-1.195 -11.026,-1.214 -6.626,-0.035 -12.781,-5.552 -13.539,-12.136 -0.271,-2.362 0.037,-4.918 -1.168,-6.967 -1.254,-2.134 -3.769,-3.09 -5.885,-4.373 -5.257,-3.186 -8.614,-9.284 -8.495,-15.431 0.118,-6.147 3.709,-12.11 9.085,-15.091 2.446,-1.357 5.311,-2.205 7.097,-4.357 2.049,-2.469 2.127,-5.965 3.13,-9.013 1.924,-5.842 7.815,-10.136 13.966,-10.181 6.151,-0.045 12.103,4.163 14.113,9.977" /></g><g
           transform="translate(257.9586,364.1022)"
           id="g326"><path
             id="path328"
             style="fill:#1a2e35;fill-opacity:1;fill-rule:nonzero;stroke:none"
             d="m 0,0 c -2.004,-5.843 -1.271,-12.563 1.944,-17.837 3.215,-5.275 8.853,-9.004 14.964,-9.901 4.743,-0.696 10.402,-0.095 13.462,-3.783 3.219,-3.88 1.312,-10.066 3.858,-14.417 3.638,-6.218 9.84,-11.179 15.725,-15.334 4.545,-3.209 -0.654,-12.144 1.326,-17.343 1.982,-5.198 10.134,-17.063 15.694,-17.275 1.215,4.651 8.137,25.074 8.258,29.879 0.121,4.805 -0.961,9.797 -3.935,13.574 -1.63,2.07 -3.777,3.722 -5.189,5.947 -3.047,4.805 -2.023,11.027 -3.011,16.63 -1.276,7.223 -6.276,13.684 -12.949,16.731 -5.55,2.535 -12.06,2.816 -17.187,6.127 C 29.17,-4.554 26.462,-0.639 22.534,1.58 14.885,5.901 5.3,2.608 -2.604,-1.226" /></g><g
           transform="translate(221.1271,305.9733)"
           id="g330"><path
             id="path332"
             style="fill:#1a2e35;fill-opacity:1;fill-rule:nonzero;stroke:none"
             d="m 0,0 c -0.791,0.527 -6.034,-3.443 -0.857,-6.609 9.068,-5.548 16.859,13.194 16.525,19.422 4.62,1.951 9.296,3.934 13.364,7.024 4.067,3.09 10.154,13.209 11.242,18.325 3.47,-1.406 20.235,-1.533 18.781,-0.527 -3.309,2.29 -10.005,7.202 -10.893,11.046 -1.932,8.349 -7.862,15.611 -15.695,17.795 -7.833,2.183 -17.27,-1.39 -21.593,-8.977 -9.328,3.081 -20.386,0.31 -27.829,-6.972 -7.443,-7.283 -10.97,-18.783 -8.877,-28.942 0.549,-2.66 1.447,-5.438 0.594,-8.075 -1.056,-3.268 -4.335,-5.031 -6.944,-7.146 -7.116,-5.768 -10.18,-15.962 -9.304,-25.164 0.876,-9.202 2.445,-12.863 7.001,-16.188 8.912,-6.508 -9.609,-23.128 6.982,-28.745" /></g><g
           transform="translate(344.9625,242.446)"
           id="g334"><path
             id="path336"
             style="fill:#375a64;fill-opacity:1;fill-rule:nonzero;stroke:none"
             d="m 0,0 c -0.045,0.067 0.586,0.412 1.562,1.325 0.957,0.91 2.342,2.379 3.341,4.703 1.021,2.271 1.719,5.445 0.936,8.92 -0.78,3.484 -3.409,6.805 -6.932,9.635 -3.42,2.942 -7.913,5.563 -11.093,10.188 -3.217,4.646 -3.745,10.973 -2.73,16.972 1.002,6.091 3.539,12.007 5.166,18.315 0.818,3.15 1.332,6.426 1.224,9.752 -0.108,3.304 -0.845,6.678 -2.614,9.538 -1.759,2.864 -4.47,5 -7.441,6.445 -2.981,1.458 -6.201,2.313 -9.4,2.863 -3.208,0.536 -6.489,0.837 -9.604,1.842 -3.099,0.925 -6.061,2.966 -7.467,5.883 -1.454,2.858 -1.768,5.894 -2.405,8.641 -0.563,2.775 -1.609,5.281 -3.233,7.347 -3.18,4.188 -7.891,6.51 -12.248,7.329 -4.426,0.804 -8.574,-0.059 -11.861,-1.427 -3.305,-1.406 -5.822,-3.292 -7.688,-5 -3.701,-3.503 -4.93,-6.153 -5.076,-6.044 -0.019,0.011 0.054,0.173 0.216,0.48 0.172,0.299 0.392,0.771 0.775,1.33 0.714,1.15 1.897,2.782 3.732,4.603 1.846,1.798 4.374,3.791 7.752,5.304 3.356,1.475 7.658,2.451 12.309,1.668 4.569,-0.8 9.526,-3.161 12.951,-7.579 1.739,-2.158 2.907,-4.92 3.496,-7.756 0.661,-2.812 1.017,-5.771 2.353,-8.338 1.282,-2.595 3.842,-4.366 6.779,-5.249 2.938,-0.938 6.15,-1.232 9.432,-1.767 3.285,-0.556 6.619,-1.427 9.762,-2.958 3.127,-1.515 6.068,-3.808 7.983,-6.929 1.922,-3.111 2.693,-6.721 2.801,-10.185 0.11,-3.483 -0.439,-6.899 -1.283,-10.113 -1.686,-6.436 -4.224,-12.302 -5.219,-18.195 -1.014,-5.823 -0.523,-11.814 2.445,-16.17 2.93,-4.376 7.338,-7.058 10.784,-10.081 C 3.049,22.373 5.8,18.831 6.555,15.106 7.311,11.415 6.492,8.133 5.366,5.815 4.259,3.443 2.768,1.988 1.735,1.125 0.681,0.259 0,0 0,0" /></g><g
           transform="translate(314.2887,302.8293)"
           id="g338"><path
             id="path340"
             style="fill:#375a64;fill-opacity:1;fill-rule:nonzero;stroke:none"
             d="m 0,0 c 0.116,-0.047 -0.488,-1.431 -1.097,-4.051 -0.585,-2.606 -1.126,-6.533 -0.354,-11.264 0.377,-2.354 1.078,-4.896 2.264,-7.43 1.145,-2.572 2.897,-4.956 4.9,-7.501 0.968,-1.292 1.953,-2.676 2.669,-4.29 0.734,-1.597 1.098,-3.468 0.943,-5.306 -0.294,-3.717 -2.12,-7.018 -3.483,-10.383 -1.427,-3.331 -2.227,-6.898 -0.922,-9.991 1.22,-3.087 3.693,-5.441 5.941,-7.688 2.28,-2.239 4.485,-4.497 5.875,-7.134 0.66,-1.324 1.117,-2.727 1.26,-4.11 0.09,-1.38 0.038,-2.722 -0.296,-3.938 -1.237,-4.959 -4.7,-7.789 -7.154,-8.918 -1.278,-0.545 -2.336,-0.78 -3.057,-0.842 -0.724,-0.046 -1.099,-0.047 -1.101,-10e-4 -0.028,0.156 1.548,0.104 3.932,1.302 2.278,1.211 5.444,4.024 6.475,8.665 0.525,2.283 0.304,4.922 -1.021,7.334 -1.324,2.418 -3.452,4.563 -5.759,6.78 -2.259,2.228 -4.89,4.625 -6.294,8.085 -0.687,1.712 -0.924,3.663 -0.667,5.541 0.239,1.884 0.866,3.68 1.574,5.412 1.412,3.446 3.152,6.657 3.415,9.982 0.353,3.343 -1.414,6.267 -3.3,8.778 -1.934,2.506 -3.787,5.094 -4.921,7.775 -1.19,2.655 -1.861,5.302 -2.191,7.741 -0.676,4.901 0.029,8.913 0.777,11.528 0.381,1.314 0.759,2.31 1.071,2.958 C -0.219,-0.313 -0.041,0.018 0,0" /></g><g
           transform="translate(164.2462,271.4362)"
           id="g342"><path
             id="path344"
             style="fill:#375a64;fill-opacity:1;fill-rule:nonzero;stroke:none"
             d="m 0,0 c -0.019,-0.021 -0.212,0.121 -0.571,0.421 -0.366,0.291 -0.862,0.782 -1.451,1.474 -1.154,1.383 -2.663,3.716 -3.323,7.104 -0.67,3.302 -0.412,7.881 2.452,11.875 2.752,3.921 7.96,7.179 14.068,6.886 l -0.553,-0.733 c -1.119,3.14 -1.964,6.663 -1.684,10.403 0.216,3.705 1.986,7.662 5.349,10.043 1.634,1.215 3.698,1.987 5.851,2.001 2.179,-0.01 4.186,-0.85 6.042,-1.71 1.862,-0.858 3.681,-1.828 5.598,-2.156 1.905,-0.34 3.868,0.197 5.289,1.567 2.128,1.993 3.09,4.957 3.277,7.865 0.235,2.942 -0.052,5.937 0.255,8.928 0.61,5.999 3.486,11.365 7.367,15.156 3.884,3.857 8.871,5.938 13.537,6.574 4.699,0.633 9.134,-0.097 12.715,-1.598 l -0.566,-0.224 c 1.579,3.263 4.341,5.276 6.884,6.316 2.574,1.069 5.021,1.221 6.927,1.034 1.926,-0.202 3.322,-0.786 4.215,-1.224 0.868,-0.501 1.286,-0.809 1.266,-0.838 -0.062,-0.172 -1.768,1.284 -5.521,1.584 -1.845,0.107 -4.187,-0.111 -6.616,-1.191 -2.402,-1.052 -4.953,-3.015 -6.355,-6.049 l -0.176,-0.379 -0.391,0.156 c -3.467,1.383 -7.737,2.023 -12.232,1.364 -4.47,-0.666 -9.182,-2.685 -12.848,-6.377 -3.669,-3.632 -6.376,-8.762 -6.93,-14.429 -0.289,-2.829 0.004,-5.809 -0.231,-8.906 -0.198,-3.068 -1.21,-6.412 -3.687,-8.727 -1.654,-1.625 -4.178,-2.318 -6.392,-1.893 -2.224,0.393 -4.1,1.43 -5.934,2.271 -1.821,0.854 -3.656,1.596 -5.498,1.605 -1.835,-0.006 -3.642,-0.656 -5.112,-1.739 -3.035,-2.141 -4.664,-5.658 -4.898,-9.122 -0.289,-3.485 0.478,-6.877 1.536,-9.936 l 0.27,-0.783 -0.825,0.049 C 5.463,26.999 0.481,24.009 -2.168,20.351 -4.924,16.645 -5.274,12.315 -4.72,9.112 -4.177,5.834 -2.807,3.518 -1.76,2.102 -0.687,0.681 0.059,0.064 0,0" /></g><g
           transform="translate(257.5485,356.572)"
           id="g346"><path
             id="path348"
             style="fill:#375a64;fill-opacity:1;fill-rule:nonzero;stroke:none"
             d="M 0,0 C 0.065,-0.23 -1.946,0.097 -4.51,-1.752 -7.065,-3.56 -9.277,-7.937 -9.927,-13.49 l -0.056,-0.477 -0.471,0.039 c -4.722,0.39 -10.691,-1.448 -14.728,-6.153 -0.972,-1.169 -1.827,-2.538 -2.366,-3.987 -0.513,-1.489 -0.772,-3.141 -1.025,-4.839 -0.257,-1.697 -0.49,-3.462 -1.025,-5.238 -0.464,-1.762 -1.601,-3.602 -3.155,-4.723 -3.318,-2.59 -7.394,-3.039 -10.957,-3.606 -3.634,-0.491 -7.045,-1.094 -9.989,-2.586 -5.945,-2.88 -9.857,-7.882 -11.572,-12.528 -1.779,-4.693 -1.713,-8.901 -1.365,-11.667 0.356,-2.8 0.949,-4.279 0.825,-4.318 -0.042,-0.016 -0.207,0.343 -0.484,1.047 -0.247,0.711 -0.599,1.774 -0.846,3.193 -0.51,2.802 -0.736,7.138 0.999,12.066 1.675,4.884 5.686,10.201 11.91,13.292 3.083,1.605 6.733,2.272 10.334,2.773 3.563,0.566 7.43,1.068 10.331,3.363 2.856,2.013 3.165,5.798 3.72,9.126 0.264,1.703 0.533,3.416 1.113,5.071 0.634,1.66 1.552,3.081 2.621,4.35 4.402,5.023 10.739,6.844 15.744,6.332 l -0.525,-0.437 c 0.795,5.781 3.233,10.263 6.072,12.085 1.384,0.917 2.669,1.231 3.515,1.313 C -0.444,0.049 -0.001,0.048 0,0" /></g><g
           transform="translate(223.0582,303.1266)"
           id="g350"><path
             id="path352"
             style="fill:#ff9e77;fill-opacity:1;fill-rule:nonzero;stroke:none"
             d="m 0,0 c 2.852,5.587 -0.979,12.614 -7.252,12.6 -3.444,-0.007 -7.148,-1.874 -10.227,-7.777 -8.209,-15.742 9.288,-20.736 9.551,-20.3 C -7.766,-15.205 -3.339,-6.543 0,0" /></g><g
           transform="translate(213.4318,296.1218)"
           id="g354"><path
             id="path356"
             style="fill:#ed7b54;fill-opacity:1;fill-rule:nonzero;stroke:none"
             d="m 0,0 c -0.043,0.086 -0.375,-0.049 -0.949,-0.02 -0.56,0.029 -1.411,0.291 -2.072,1.027 -1.344,1.478 -1.368,4.848 0.036,7.725 0.706,1.454 1.718,2.662 2.815,3.526 1.081,0.901 2.245,1.318 3.16,1.029 0.933,-0.242 1.264,-1.052 1.226,-1.596 -0.018,-0.55 -0.282,-0.812 -0.213,-0.882 0.024,-0.062 0.476,0.087 0.688,0.804 0.098,0.346 0.107,0.814 -0.105,1.309 -0.217,0.504 -0.691,0.95 -1.307,1.191 C 2.021,14.662 0.346,14.115 -0.859,13.167 -2.133,12.247 -3.304,10.908 -4.098,9.275 -5.651,6.05 -5.575,2.235 -3.643,0.391 -2.686,-0.475 -1.588,-0.623 -0.917,-0.5 -0.227,-0.366 0.04,-0.057 0,0" /></g><g
           transform="translate(214.6989,54.9792)"
           id="g358"><path
             id="path360"
             style="fill:#1a2e35;fill-opacity:1;fill-rule:nonzero;stroke:none"
             d="m 0,0 c -2.863,0.229 -5.808,2.19 -7.38,4.266 -0.652,0.861 -7.607,12.966 -8.504,15.22 -1.566,3.933 -0.483,6.113 0.087,8.417 0.827,3.344 5.996,1.384 5.996,1.384 0,0 15.218,-26.295 14.874,-27.097 C 4.73,1.389 2.863,-0.229 0,0 m -7.324,29.531 c -1.39,2.583 -4.967,4.173 -4.967,4.173 l -2.98,7.351 c 0,0 1.192,2.583 0,5.762 -1.192,3.179 -9.934,21.657 -9.735,22.252 l -2.263,0.133 c 0,0 8.058,-19.554 8.852,-20.547 0.795,-0.994 1.955,-6.812 -0.032,-7.606 -1.987,-0.795 -6.209,1.356 -7.997,3.144 -1.788,1.788 -7.483,15.242 -8.476,18.024 -0.994,2.781 0.776,6.654 0.776,6.654 l 1.59,3.775 h -2.186 c 0,0 -1.391,-3.974 -2.185,-7.749 -0.795,-3.775 8.146,-20.265 9.536,-22.053 1.391,-1.789 6.16,-3.18 8.743,-4.968 2.583,-1.788 2.185,-7.351 2.185,-7.351 0,0 -2.185,-2.98 -2.384,-6.556 -0.199,-3.576 7.748,-20.465 13.113,-24.041 5.364,-3.576 11.722,-0.993 12.318,-1.193 0.596,-0.198 1.987,2.783 1.987,2.783 0,0 -14.504,25.43 -15.895,28.013" /></g><g
           transform="translate(223.2697,56.4968)"
           id="g362"><path
             id="path364"
             style="fill:#1a2e35;fill-opacity:1;fill-rule:nonzero;stroke:none"
             d="m 0,0 c 0,0 44.313,16.864 46.381,18.774 2.07,1.91 9.55,12.892 9.55,12.892 0,0 3.661,-0.637 3.184,-1.592 C 58.637,29.119 51.634,18.138 44.154,14.954 36.673,11.771 -1.987,-2.782 -1.987,-2.782 Z" /></g><g
           transform="translate(83.0514,195.446)"
           id="g366"><path
             id="path368"
             style="fill:#ff4f5b;fill-opacity:1;fill-rule:nonzero;stroke:none"
             d="m 0,0 -18.255,-105.253 c 0,0 -6.72,-20.479 -5.76,-24.959 0.96,-4.48 4.355,-23.806 14.595,-29.886 10.239,-6.08 30.524,-2.113 34.683,2.047 4.16,4.16 12.358,11.784 13.318,15.305 0.96,3.519 7.692,57.039 7.692,57.039 l 2.669,15.013 c 0,0 -9.92,-3.201 -15.999,0.959 -6.08,4.16 -14.079,22.079 -14.079,22.079 l -8.96,-13.759 z" /></g><g
           transform="translate(101.9152,147.7897)"
           id="g370"><path
             id="path372"
             style="fill:#1a2e35;fill-opacity:1;fill-rule:nonzero;stroke:none"
             d="m 0,0 c 0.015,-0.01 -0.106,-0.214 -0.349,-0.594 -0.277,-0.42 -0.636,-0.966 -1.083,-1.643 -0.942,-1.426 -2.299,-3.493 -3.931,-6.076 -3.283,-5.154 -7.666,-12.371 -12.456,-20.374 -4.79,-8.006 -9.111,-15.264 -12.324,-20.468 -1.602,-2.605 -2.924,-4.697 -3.857,-6.13 -0.45,-0.677 -0.811,-1.222 -1.09,-1.641 -0.254,-0.372 -0.394,-0.562 -0.41,-0.553 -0.015,0.01 0.096,0.219 0.322,0.61 0.257,0.431 0.591,0.993 1.006,1.691 0.909,1.52 2.17,3.629 3.714,6.213 3.148,5.305 7.444,12.545 12.192,20.546 4.791,8.005 9.227,15.197 12.594,20.306 1.673,2.559 3.079,4.598 4.073,5.991 0.48,0.655 0.867,1.183 1.164,1.589 C -0.164,-0.173 -0.015,0.011 0,0" /></g><g
           transform="translate(129.6989,111.8425)"
           id="g374"><path
             id="path376"
             style="fill:#1a2e35;fill-opacity:1;fill-rule:nonzero;stroke:none"
             d="m 0,0 c 0.013,-0.012 -0.117,-0.162 -0.377,-0.437 -0.268,-0.266 -0.632,-0.694 -1.174,-1.167 -1.056,-0.97 -2.704,-2.294 -5.046,-3.411 -1.178,-0.528 -2.523,-1.029 -4.033,-1.271 -1.5,-0.274 -3.154,-0.354 -4.856,-0.118 -1.701,0.22 -3.461,0.675 -5.18,1.398 -1.714,0.734 -3.407,1.662 -5.032,2.794 -1.594,1.173 -3.003,2.504 -4.233,3.902 -1.197,1.428 -2.219,2.912 -3.052,4.406 -1.658,2.995 -2.563,5.976 -3.029,8.508 -0.457,2.541 -0.485,4.639 -0.409,6.074 0.025,0.718 0.12,1.272 0.157,1.647 0.047,0.375 0.08,0.571 0.098,0.569 0.047,-0.004 -0.017,-0.796 -0.053,-2.223 -0.013,-1.426 0.072,-3.499 0.569,-5.998 0.505,-2.489 1.434,-5.413 3.086,-8.343 0.83,-1.462 1.841,-2.911 3.02,-4.307 1.211,-1.365 2.591,-2.665 4.15,-3.812 1.585,-1.105 3.251,-2.023 4.925,-2.746 1.679,-0.714 3.39,-1.165 5.043,-1.394 1.655,-0.241 3.26,-0.179 4.722,0.069 1.474,0.216 2.792,0.685 3.955,1.181 2.313,1.05 3.977,2.311 5.064,3.228 C -0.603,-0.521 -0.034,0.034 0,0" /></g><g
           transform="translate(101.9152,147.7897)"
           id="g378"><path
             id="path380"
             style="fill:#ff9e77;fill-opacity:1;fill-rule:nonzero;stroke:none"
             d="m 0,0 13.654,8.781 c 0,0 36.406,14.79 40.103,15.643 3.698,0.853 7.964,2.56 9.954,0 1.992,-2.56 22.754,-17.634 22.754,-17.634 0,0 12.23,-23.037 12.23,-26.166 0,-3.129 3.413,-7.133 0,-8.26 l -3.413,-1.126 c 0,0 -1.138,-5.578 -5.404,-6.202 -4.266,-0.624 -5.689,0 -5.689,0 0,0 -0.284,-5.579 -3.697,-5.234 -3.413,0.344 -9.101,5.234 -9.101,5.234 0,0 -2.56,-2.899 -4.551,-2.899 -1.991,0 -8.248,4.266 -8.248,4.266 l -12.098,10.524 -10.655,3.697 -5.76,-3.662 c 0,0 -12.306,-1.047 -14.153,-0.044 C 14.079,-22.079 0,0 0,0" /></g><g
           transform="translate(171.817,111.8425)"
           id="g382"><path
             id="path384"
             style="fill:#ed7b54;fill-opacity:1;fill-rule:nonzero;stroke:none"
             d="m 0,0 c -0.035,-0.01 -0.256,0.566 -0.627,1.613 -0.179,0.527 -0.406,1.166 -0.717,1.892 -0.304,0.727 -0.609,1.572 -1.05,2.462 -0.412,0.901 -0.869,1.887 -1.436,2.905 -0.522,1.043 -1.182,2.1 -1.853,3.224 -1.406,2.209 -3.093,4.549 -5.076,6.831 -2.005,2.263 -4.105,4.241 -6.112,5.924 -1.028,0.811 -1.989,1.604 -2.956,2.256 -0.936,0.696 -1.853,1.277 -2.694,1.803 -0.824,0.553 -1.622,0.965 -2.304,1.361 -0.678,0.403 -1.283,0.712 -1.781,0.958 -0.99,0.503 -1.532,0.798 -1.518,0.832 0.015,0.033 0.584,-0.2 1.606,-0.65 0.514,-0.219 1.135,-0.502 1.831,-0.883 0.699,-0.374 1.515,-0.767 2.358,-1.303 0.859,-0.51 1.795,-1.079 2.75,-1.764 0.986,-0.643 1.966,-1.43 3.012,-2.238 2.042,-1.678 4.174,-3.666 6.2,-5.953 2.002,-2.305 3.695,-4.678 5.093,-6.921 0.665,-1.143 1.317,-2.216 1.827,-3.277 0.554,-1.037 0.996,-2.039 1.39,-2.957 C -1.635,5.209 -1.352,4.35 -1.072,3.607 -0.785,2.868 -0.584,2.215 -0.435,1.677 -0.122,0.605 0.035,0.01 0,0" /></g><g
           transform="translate(186.0788,112.1931)"
           id="g386"><path
             id="path388"
             style="fill:#ed7b54;fill-opacity:1;fill-rule:nonzero;stroke:none"
             d="m 0,0 c -0.015,-0.009 -0.12,0.142 -0.307,0.437 -0.179,0.3 -0.47,0.731 -0.779,1.32 -0.632,1.172 -1.434,2.93 -2.22,5.176 -0.796,2.243 -1.558,4.968 -2.461,7.965 -0.926,2.981 -2.004,6.271 -3.844,9.352 -1.804,3.106 -4.333,5.503 -6.841,7.334 -2.521,1.837 -4.945,3.316 -6.794,4.83 -1.865,1.489 -3.159,2.968 -3.862,4.105 -0.345,0.574 -0.596,1.027 -0.724,1.356 -0.141,0.32 -0.207,0.492 -0.191,0.499 0.055,0.026 0.336,-0.657 1.083,-1.742 0.745,-1.086 2.051,-2.494 3.922,-3.929 1.855,-1.459 4.285,-2.896 6.849,-4.731 2.555,-1.832 5.159,-4.277 7.005,-7.454 1.879,-3.15 2.952,-6.482 3.857,-9.482 0.88,-3.015 1.603,-5.74 2.349,-7.984 0.737,-2.247 1.48,-4.011 2.053,-5.203 C -0.316,0.667 0.038,0.022 0,0" /></g><g
           transform="translate(196.3385,118.7878)"
           id="g390"><path
             id="path392"
             style="fill:#ed7b54;fill-opacity:1;fill-rule:nonzero;stroke:none"
             d="m 0,0 c -0.018,-0.004 -0.07,0.167 -0.154,0.495 -0.092,0.387 -0.204,0.861 -0.341,1.438 -0.134,0.627 -0.309,1.389 -0.568,2.262 -0.251,0.874 -0.488,1.883 -0.873,2.962 -0.351,1.089 -0.742,2.28 -1.252,3.525 -0.457,1.265 -1.068,2.566 -1.682,3.947 -1.307,2.725 -2.915,5.639 -4.862,8.533 -1.977,2.876 -4.098,5.442 -6.151,7.66 -1.059,1.078 -2.044,2.126 -3.054,3.015 -0.97,0.933 -1.933,1.733 -2.817,2.461 -0.862,0.754 -1.713,1.345 -2.434,1.899 -0.717,0.562 -1.362,1.005 -1.895,1.361 -0.486,0.338 -0.886,0.617 -1.212,0.844 -0.274,0.199 -0.413,0.31 -0.404,0.326 0.009,0.015 0.167,-0.067 0.46,-0.237 0.341,-0.205 0.759,-0.458 1.267,-0.764 0.553,-0.331 1.218,-0.751 1.954,-1.293 0.741,-0.535 1.612,-1.11 2.495,-1.85 0.904,-0.713 1.887,-1.503 2.877,-2.428 1.03,-0.883 2.035,-1.926 3.111,-3.004 2.089,-2.216 4.24,-4.797 6.233,-7.697 1.965,-2.919 3.573,-5.866 4.867,-8.624 0.607,-1.396 1.208,-2.714 1.65,-3.996 0.497,-1.261 0.87,-2.466 1.202,-3.568 0.363,-1.093 0.577,-2.115 0.802,-3 C -0.548,3.383 -0.4,2.609 -0.296,1.975 -0.198,1.389 -0.117,0.906 -0.05,0.514 0,0.18 0.018,0.003 0,0" /></g><g
           transform="translate(142.7589,157.612)"
           id="g394"><path
             id="path396"
             style="fill:#ed7b54;fill-opacity:1;fill-rule:nonzero;stroke:none"
             d="m 0,0 c 0.014,-0.085 -0.707,-0.194 -1.757,-0.648 -1.044,-0.444 -2.416,-1.306 -3.462,-2.686 -1.045,-1.382 -1.503,-2.937 -1.647,-4.062 -0.152,-1.134 -0.062,-1.857 -0.148,-1.867 -0.055,-0.012 -0.28,0.704 -0.218,1.903 0.053,1.183 0.479,2.862 1.598,4.34 1.119,1.477 2.619,2.342 3.744,2.714 C -0.754,0.079 -0.003,0.057 0,0" /></g><g
           transform="translate(152.9015,167.2477)"
           id="g398"><path
             id="path400"
             style="fill:#ed7b54;fill-opacity:1;fill-rule:nonzero;stroke:none"
             d="m 0,0 c 0.083,-0.134 -1.683,-1.252 -3.423,-3.106 -1.758,-1.841 -2.777,-3.665 -2.915,-3.589 -0.121,0.048 0.719,2.041 2.537,3.946 C -1.999,-0.83 -0.054,0.118 0,0" /></g><g
           transform="translate(295.611,285.9953)"
           id="g402"><path
             id="path404"
             style="fill:#ff9e77;fill-opacity:1;fill-rule:nonzero;stroke:none"
             d="m 0,0 c -1.729,-0.714 -2.08,-2.781 -2.053,-4.652 0.034,-2.342 0.624,-2.723 2.536,-6.646 3.124,-6.411 6.863,-18.566 6.863,-18.566 0,0 -3.065,-30.701 -1.047,-37.908 1.821,-6.506 7.969,-8.171 7.969,-8.171 l -2.799,-23.713 h 33.489 c 0,0 -1.191,22.951 -1.911,29.947 -0.76,7.399 -0.253,52.151 -0.253,52.151 L 39.503,6.339 31.747,19.75 c 0,0 -4.036,-2.426 -2.287,-7.342 1.749,-4.916 2.903,-14.345 2.903,-14.345 L 12.974,27.249 c 0,0 -3.812,-0.912 -4.041,-7.965 0,0 -5.64,-3.67 -2.011,-9.627 4.051,-6.651 8.264,-26.635 6.784,-26.635 L 1.674,0.692 Z" /></g><g
           transform="translate(307.0797,186.3395)"
           id="g406"><path
             id="path408"
             style="fill:#ed7b54;fill-opacity:1;fill-rule:nonzero;stroke:none"
             d="m 0,0 c 0,0 0.04,0.535 0.15,1.571 0.117,1.05 0.287,2.586 0.509,4.593 0.463,4.043 1.142,9.969 2.012,17.565 l 0.094,-0.14 c -1.499,0.473 -2.953,1.268 -4.265,2.366 -1.315,1.089 -2.452,2.523 -3.201,4.221 -0.803,1.688 -1.008,3.638 -1.175,5.592 -0.116,1.967 -0.165,4.003 -0.143,6.099 0.092,8.388 0.742,17.764 1.687,27.946 l 0.009,-0.083 c -1.569,4.938 -3.304,10.149 -5.483,15.428 -0.549,1.318 -1.136,2.63 -1.796,3.928 -0.623,1.318 -1.434,2.542 -1.913,4.026 -0.214,0.753 -0.246,1.529 -0.24,2.288 0.017,0.763 0.087,1.541 0.332,2.296 0.234,0.747 0.685,1.496 1.402,1.935 0.361,0.226 0.726,0.348 1.073,0.498 l 1.062,0.44 0.18,0.074 0.109,-0.161 C -5.606,94.629 -1.385,88.436 2.957,82.066 L 2.504,81.974 c 0.193,1.481 0.106,3.074 -0.061,4.626 -0.187,1.559 -0.435,3.127 -0.8,4.681 -0.695,3.118 -1.67,6.215 -2.802,9.288 -1.103,3.095 -2.491,6.087 -3.843,9.178 -0.641,1.572 -0.977,3.374 -0.542,5.092 0.397,1.72 1.43,3.246 2.864,4.317 l -0.114,-0.186 c 0.191,1.48 0.477,3.021 1.068,4.509 0.295,0.743 0.676,1.468 1.174,2.127 0.513,0.649 1.098,1.263 2.002,1.553 l 0.163,0.052 0.109,-0.163 c 0.07,-0.106 0.147,-0.222 0.224,-0.338 6.56,-9.876 12.971,-19.528 19.161,-28.849 l -0.465,-0.173 c -0.514,3.89 -1.133,7.732 -2.047,11.435 -0.233,0.924 -0.491,1.837 -0.796,2.726 -0.305,0.917 -0.531,1.893 -0.483,2.879 0.076,1.992 1.216,3.808 2.834,4.89 l 0.21,0.14 0.131,-0.228 c 2.649,-4.585 5.231,-9.056 7.749,-13.416 l 0.024,-0.041 0.006,-0.046 c 1.144,-8.359 2.237,-16.335 3.272,-23.899 l 0.002,-0.016 V 82.096 C 31.405,69.718 31.332,58.393 31.348,48.37 c 0.011,-5.012 0.038,-9.699 0.154,-14.025 0.061,-2.166 0.183,-4.223 0.383,-6.204 0.166,-1.979 0.289,-3.866 0.41,-5.657 C 32.758,15.322 33.043,9.7 33.238,5.87 33.328,3.965 33.396,2.501 33.443,1.499 33.485,0.511 33.489,0 33.489,0 c 0,0 -0.05,0.508 -0.113,1.496 -0.062,1.001 -0.152,2.463 -0.27,4.367 -0.238,3.827 -0.563,9.447 -1.063,16.605 -0.131,1.788 -0.263,3.675 -0.438,5.649 -0.208,1.966 -0.34,4.056 -0.41,6.219 -0.133,4.332 -0.175,9.019 -0.203,14.032 -0.048,10.027 -0.001,21.352 0.114,33.733 l 0.002,-0.032 c -1.046,7.561 -2.152,15.536 -3.309,23.893 l 0.029,-0.087 c -2.522,4.357 -5.11,8.826 -7.764,13.408 l 0.341,-0.088 c -1.459,-0.98 -2.536,-2.676 -2.591,-4.489 -0.043,-0.91 0.164,-1.807 0.457,-2.692 0.314,-0.91 0.577,-1.834 0.812,-2.768 0.926,-3.739 1.547,-7.583 2.065,-11.496 l 0.145,-1.092 -0.611,0.92 c -6.194,9.319 -12.607,18.97 -19.169,28.844 -0.077,0.116 -0.155,0.231 -0.225,0.338 l 0.271,-0.111 c -0.635,-0.201 -1.251,-0.766 -1.699,-1.359 -0.458,-0.609 -0.821,-1.293 -1.102,-2.004 -0.567,-1.424 -0.848,-2.928 -1.035,-4.377 l -0.015,-0.112 -0.1,-0.074 c -1.293,-0.964 -2.293,-2.42 -2.646,-4.002 -0.405,-1.59 -0.097,-3.274 0.516,-4.779 1.333,-3.051 2.742,-6.094 3.844,-9.195 1.137,-3.092 2.117,-6.208 2.817,-9.356 0.367,-1.569 0.618,-3.155 0.805,-4.737 0.166,-1.59 0.265,-3.162 0.051,-4.778 L 2.912,81.242 2.543,81.784 c -4.335,6.374 -8.551,12.572 -12.534,18.43 l 0.288,-0.087 c -0.685,-0.302 -1.474,-0.562 -2.066,-0.897 -0.598,-0.364 -0.989,-0.996 -1.206,-1.68 -0.224,-0.685 -0.296,-1.425 -0.311,-2.158 -0.008,-0.737 0.023,-1.47 0.219,-2.153 0.429,-1.357 1.252,-2.631 1.875,-3.947 0.661,-1.307 1.254,-2.637 1.803,-3.96 2.18,-5.309 3.905,-10.523 5.467,-15.478 l 0.012,-0.04 -0.004,-0.043 C -4.88,59.604 -5.553,50.231 -5.672,41.865 c -0.029,-2.092 0.013,-4.119 0.121,-6.075 0.16,-1.945 0.352,-3.843 1.127,-5.49 1.45,-3.341 4.401,-5.519 7.256,-6.462 L 2.939,23.803 2.927,23.698 C 2.005,16.109 1.285,10.188 0.794,6.147 0.543,4.145 0.351,2.611 0.22,1.563 0.086,0.529 0,0 0,0" /></g><g
           transform="translate(321.8805,266.4479)"
           id="g410"><path
             id="path412"
             style="fill:#ed7b54;fill-opacity:1;fill-rule:nonzero;stroke:none"
             d="m 0,0 c -0.036,-0.005 -0.163,0.585 -0.363,1.655 -0.183,1.072 -0.51,2.612 -0.941,4.505 -0.895,3.776 -2.434,8.94 -4.95,14.306 -2.494,5.378 -5.373,9.93 -7.543,13.153 -1.084,1.614 -1.984,2.905 -2.612,3.795 -0.624,0.892 -0.956,1.395 -0.928,1.417 0.029,0.022 0.416,-0.441 1.091,-1.297 0.679,-0.853 1.627,-2.115 2.753,-3.706 2.254,-3.178 5.199,-7.726 7.712,-13.142 C -3.248,15.28 -1.752,10.055 -0.944,6.241 -0.558,4.328 -0.285,2.771 -0.163,1.687 -0.024,0.604 0.035,0.005 0,0" /></g><g
           transform="translate(332.2819,273.9001)"
           id="g414"><path
             id="path416"
             style="fill:#ed7b54;fill-opacity:1;fill-rule:nonzero;stroke:none"
             d="m 0,0 c -0.133,-0.055 -1.229,2.271 -2.448,5.196 -1.22,2.926 -2.101,5.342 -1.968,5.397 0.133,0.056 1.228,-2.27 2.448,-5.197 C -0.749,2.472 0.132,0.056 0,0" /></g><g
           transform="translate(304.4059,196.1569)"
           id="g418"><path
             id="path420"
             style="fill:#ff4f5b;fill-opacity:1;fill-rule:nonzero;stroke:none"
             d="m 0,0 v 0 c -5.874,-51.872 -13.529,-107.093 -22.327,-164.461 h 68.171 c 12.816,28.38 4.978,53.142 1.56,88.435 L 36.163,4.104 Z" /></g><g
           transform="translate(282.0787,31.696)"
           id="g422"><path
             id="path424"
             style="fill:#1a2e35;fill-opacity:1;fill-rule:nonzero;stroke:none"
             d="m 0,0 c -0.009,0.001 -0.001,0.116 0.024,0.338 0.031,0.249 0.071,0.574 0.122,0.984 0.123,0.897 0.297,2.162 0.519,3.777 0.48,3.309 1.166,8.041 2.013,13.874 1.725,11.739 4.1,27.903 6.724,45.757 2.572,17.881 4.745,34.089 6.178,45.837 0.728,5.873 1.28,10.631 1.653,13.919 0.19,1.618 0.338,2.887 0.444,3.785 0.053,0.411 0.095,0.735 0.129,0.984 0.031,0.221 0.051,0.334 0.061,0.333 0.009,-0.001 0.006,-0.115 -0.009,-0.339 -0.019,-0.25 -0.045,-0.576 -0.077,-0.988 -0.082,-0.901 -0.198,-2.173 -0.345,-3.796 -0.312,-3.296 -0.809,-8.061 -1.49,-13.941 C 14.606,98.761 12.489,82.54 9.918,64.656 7.344,46.778 4.858,30.615 3.042,18.918 2.127,13.095 1.385,8.372 0.865,5.068 0.602,3.46 0.396,2.199 0.25,1.307 0.178,0.899 0.12,0.577 0.076,0.33 0.034,0.11 0.009,-0.001 0,0" /></g></g></g><g
       id="g426"><g
         clip-path="url(#clipPath432)"
         id="g428"><g
           transform="translate(429.7819,32.1501)"
           id="g434"><path
             id="path436"
             style="fill:#375a64;fill-opacity:1;fill-rule:nonzero;stroke:none"
             d="m 0,0 h -194.395 l 25.083,136.431 c 0.89,4.84 5.109,8.353 10.03,8.353 H 15.389 c 6.4,0 11.218,-5.828 10.014,-12.115 z" /></g><g
           transform="translate(235.3869,32.1501)"
           id="g438"><path
             id="path440"
             style="fill:#375a64;fill-opacity:1;fill-rule:nonzero;stroke:none"
             d="m 0,0 h -73.732 l 0.296,0.222 c 6.577,4.932 14.518,7.712 22.736,7.956 L 2.027,9.729 Z" /></g><g
           transform="translate(282.0787,176.7477)"
           id="g442"><path
             id="path444"
             style="fill:#1a2e35;fill-opacity:1;fill-rule:nonzero;stroke:none"
             d="m 0,0 c -0.008,-0.05 -0.541,0.101 -1.572,0.107 -1.023,0.008 -2.569,-0.202 -4.319,-1.071 -1.737,-0.856 -3.676,-2.391 -5.18,-4.714 -1.503,-2.332 -2.522,-5.376 -3.175,-8.818 -0.634,-3.45 -1.192,-7.283 -1.881,-11.37 -0.703,-4.087 -1.453,-8.454 -2.312,-13.036 -1.694,-9.17 -3.701,-19.223 -5.883,-29.757 -4.39,-21.071 -8.453,-40.12 -11.11,-53.966 -1.337,-6.921 -2.368,-12.531 -3.067,-16.41 -0.345,-1.9 -0.617,-3.394 -0.812,-4.467 -0.094,-0.476 -0.17,-0.857 -0.23,-1.159 -0.055,-0.26 -0.09,-0.393 -0.103,-0.391 -0.012,0.002 -0.001,0.139 0.03,0.404 0.041,0.303 0.094,0.689 0.158,1.169 0.164,1.079 0.391,2.582 0.679,4.491 0.613,3.895 1.568,9.522 2.841,16.458 2.529,13.877 6.514,32.952 10.903,54.017 2.181,10.533 4.208,20.576 5.936,29.734 0.877,4.576 1.648,8.935 2.376,13.014 0.715,4.084 1.299,7.891 1.972,11.369 0.691,3.467 1.763,6.569 3.337,8.94 1.583,2.371 3.598,3.906 5.399,4.747 1.813,0.852 3.406,1.018 4.444,0.963 C -0.521,0.198 0,0 0,0" /></g><g
           transform="translate(364.1764,107.612)"
           id="g446"><path
             id="path448"
             style="fill:#f5f5f5;fill-opacity:1;fill-rule:nonzero;stroke:none"
             d="m 0,0 c 0,-5.19 -4.208,-9.398 -9.398,-9.398 -5.192,0 -9.4,4.208 -9.4,9.398 0,5.19 4.208,9.398 9.4,9.398 C -4.208,9.398 0,5.19 0,0" /></g></g></g><g
       id="g450"><g
         clip-path="url(#clipPath456)"
         id="g452"><g
           transform="translate(477.6198,31.9919)"
           id="g458"><path
             id="path460"
             style="fill:#1a2e35;fill-opacity:1;fill-rule:nonzero;stroke:none"
             d="m 0,0 c 0,-0.144 -102.365,-0.26 -228.609,-0.26 -126.287,0 -228.63,0.116 -228.63,0.26 0,0.145 102.343,0.261 228.63,0.261 C -102.365,0.261 0,0.145 0,0" /></g></g></g><g
       transform="translate(206.5763,390.1926)"
       id="g462"><path
         id="path464"
         style="fill:#ff4f5b;fill-opacity:1;fill-rule:nonzero;stroke:none"
         d="m 0,0 -2.67,25.111 -12.809,-2.892 -11.036,19.497 6.877,-26.361 12.992,2.979 z" /></g><g
       transform="translate(201.3624,385.4465)"
       id="g466"><path
         id="path468"
         style="fill:#ff4f5b;fill-opacity:1;fill-rule:nonzero;stroke:none"
         d="m 0,0 -11.902,12.25 -5.611,-6.885 -14.011,5.77 14.663,-11.16 5.671,7.008 z" /></g><g
       transform="translate(330.0035,374.6174)"
       id="g470"><path
         id="path472"
         style="fill:#ff4f5b;fill-opacity:1;fill-rule:nonzero;stroke:none"
         d="M 0,0 10.816,19.681 20.33,12.909 36.08,25.11 21.384,5.849 11.75,12.756 Z" /></g><g
       transform="translate(349.8541,363.3893)"
       id="g474"><path
         id="path476"
         style="fill:#ff4f5b;fill-opacity:1;fill-rule:nonzero;stroke:none"
         d="M 0,0 11.185,4.771 12.976,-1.293 23.763,-1.357 11.065,-4.653 9.269,1.509 Z" /></g><g
       id="g478"><g
         clip-path="url(#clipPath484)"
         id="g480"><g
           transform="translate(272.2321,439.8503)"
           id="g486"><path
             id="path488"
             style="fill:#1a2e35;fill-opacity:1;fill-rule:nonzero;stroke:none"
             d="M 0,0 C 0,0 0.449,0.287 1.346,0.831 2.254,1.35 3.619,2.117 5.515,2.922 9.264,4.52 15.243,6.484 23.207,6.183 24.196,6.135 25.217,6.075 26.255,5.934 27.296,5.821 28.366,5.653 29.435,5.354 30.5,5.057 31.578,4.662 32.589,4.07 33.586,3.474 34.549,2.684 35.16,1.599 35.802,0.537 36.001,-0.795 35.779,-2.064 35.533,-3.341 34.814,-4.501 33.928,-5.489 32.1,-7.448 29.6,-8.823 26.902,-9.743 21.545,-11.715 15.36,-12.774 8.829,-12.329 c -6.511,0.425 -13.394,2.287 -19.696,6.044 l -0.143,0.085 0.087,0.142 C -8.517,-2.125 -4.854,1.16 -0.54,3.478 3.778,5.803 8.74,7.233 13.923,7.62 19.109,8.01 24.479,7.492 29.821,6.334 32.496,5.76 35.176,5.05 37.852,4.222 c 2.67,-0.826 5.394,-1.694 7.955,-3.045 2.547,-1.332 4.928,-3.256 6.408,-5.864 0.727,-1.295 1.259,-2.736 1.392,-4.25 0.159,-1.51 -0.134,-3.058 -0.734,-4.459 -1.252,-2.837 -3.807,-4.85 -6.5,-6.28 -2.723,-1.453 -5.727,-2.362 -8.759,-3.071 -12.125,-2.975 -25.374,-3.46 -38.539,-0.982 -0.826,0.137 -1.641,0.335 -2.464,0.506 -0.823,0.167 -1.642,0.361 -2.459,0.574 -1.636,0.391 -3.289,0.835 -4.872,1.493 -1.584,0.643 -3.123,1.474 -4.451,2.61 -1.317,1.126 -2.399,2.668 -2.69,4.446 -0.329,1.763 0.142,3.628 1.118,5.108 0.962,1.503 2.302,2.704 3.732,3.731 1.441,1.027 3.019,1.839 4.615,2.583 0.787,0.399 1.6,0.744 2.416,1.086 0.81,0.357 1.63,0.691 2.469,0.986 6.649,2.492 13.816,3.883 21.098,3.993 3.64,0.061 7.307,-0.187 10.944,-0.762 0.911,-0.135 1.821,-0.289 2.722,-0.493 0.905,-0.186 1.812,-0.366 2.705,-0.616 1.796,-0.438 3.595,-0.961 5.312,-1.717 1.716,-0.742 3.376,-1.686 4.802,-2.948 1.421,-1.249 2.584,-2.898 3.027,-4.793 l 0.146,-0.71 0.059,-0.724 c 0.066,-0.482 -0.012,-0.967 -0.032,-1.451 -0.147,-0.954 -0.387,-1.908 -0.837,-2.767 -0.831,-1.756 -2.169,-3.197 -3.619,-4.439 -1.461,-1.245 -3.094,-2.266 -4.797,-3.146 -0.849,-0.447 -1.73,-0.832 -2.608,-1.204 -0.875,-0.387 -1.764,-0.743 -2.658,-1.088 -3.571,-1.392 -7.262,-2.529 -11.032,-3.389 -7.535,-1.746 -15.389,-2.41 -23.237,-1.917 -3.922,0.248 -7.907,1.067 -11.428,3.005 -1.737,0.98 -3.365,2.278 -4.467,4.001 -1.088,1.723 -1.598,3.8 -1.442,5.839 0.136,1.675 0.75,3.278 1.625,4.68 0.876,1.407 1.988,2.646 3.214,3.73 2.457,2.174 5.351,3.782 8.333,5.014 5.952,2.533 12.291,4.03 18.655,4.496 3.182,0.235 6.372,0.213 9.528,-0.066 1.578,-0.138 3.148,-0.337 4.703,-0.61 1.553,-0.253 3.116,-0.577 4.609,-1.11 1.491,-0.527 2.953,-1.183 4.245,-2.12 1.288,-0.921 2.446,-2.121 3.057,-3.629 0.649,-1.484 0.67,-3.209 0.154,-4.723 -0.51,-1.523 -1.479,-2.844 -2.652,-3.894 -2.396,-2.119 -5.5,-3.005 -8.446,-3.724 -2.975,-0.706 -5.932,-1.408 -8.892,-2.06 -5.913,-1.306 -11.836,-2.407 -17.775,-2.877 -5.93,-0.497 -11.884,-0.28 -17.615,0.849 -5.72,1.14 -11.22,3.268 -15.945,6.502 l -0.257,0.176 0.234,0.206 c 8.224,7.238 18.471,11.571 28.766,13.053 10.315,1.494 20.768,0.149 29.833,-3.852 1.111,-0.557 2.184,-1.205 3.121,-2.032 0.94,-0.811 1.745,-1.83 2.163,-3.03 0.398,-1.206 0.334,-2.544 -0.175,-3.696 -0.523,-1.148 -1.395,-2.073 -2.361,-2.807 -1.953,-1.484 -4.252,-2.273 -6.478,-3.023 -2.25,-0.721 -4.538,-1.261 -6.833,-1.624 -4.597,-0.703 -9.216,-0.711 -13.663,-0.005 -1.106,0.206 -2.249,0.521 -3.157,1.276 -0.923,0.738 -1.375,2 -1.153,3.153 0.248,1.149 0.955,2.09 1.751,2.855 0.798,0.776 1.728,1.386 2.699,1.889 7.921,3.566 16.454,4.685 24.367,3.82 1.978,-0.221 3.943,-0.588 5.766,-1.327 1.816,-0.724 3.503,-1.859 4.641,-3.433 1.143,-1.545 1.81,-3.476 1.592,-5.38 -0.209,-1.924 -1.419,-3.535 -2.799,-4.696 -1.389,-1.194 -2.965,-2.054 -4.489,-2.929 -1.555,-0.826 -3.118,-1.592 -4.716,-2.21 -3.182,-1.27 -6.414,-2.139 -9.6,-2.653 -6.379,-1.029 -12.544,-0.607 -17.991,0.783 l -0.185,0.047 0.112,0.154 c 2.647,3.639 6.301,6.107 10.007,7.469 3.72,1.362 7.539,1.679 10.922,1.076 1.693,-0.27 3.301,-0.821 4.616,-1.732 0.65,-0.46 1.218,-1.02 1.634,-1.667 0.397,-0.653 0.669,-1.375 0.736,-2.107 0.162,-1.474 -0.377,-2.853 -1.1,-3.937 -0.719,-1.105 -1.648,-1.962 -2.578,-2.67 -1.887,-1.423 -3.905,-2.024 -5.531,-2.687 -1.653,-0.627 -3.018,-1.214 -4.052,-1.802 -1.032,-0.594 -1.741,-1.157 -2.175,-1.574 -0.227,-0.197 -0.37,-0.375 -0.479,-0.479 -0.107,-0.109 -0.162,-0.161 -0.162,-0.161 0,0 0.188,0.241 0.617,0.666 0.427,0.426 1.134,1.002 2.164,1.608 1.034,0.601 2.399,1.2 4.05,1.839 1.625,0.673 3.631,1.285 5.486,2.699 0.916,0.704 1.831,1.556 2.533,2.645 0.706,1.069 1.222,2.414 1.059,3.834 -0.066,0.706 -0.331,1.403 -0.717,2.031 -0.404,0.624 -0.955,1.165 -1.591,1.612 -1.285,0.884 -2.869,1.424 -4.544,1.685 -3.35,0.588 -7.13,0.263 -10.809,-1.094 -3.665,-1.358 -7.272,-3.808 -9.876,-7.405 l -0.073,0.201 c 5.417,-1.37 11.545,-1.776 17.88,-0.742 3.164,0.516 6.373,1.386 9.53,2.653 1.586,0.616 3.135,1.379 4.677,2.201 1.512,0.87 3.08,1.732 4.429,2.898 1.346,1.137 2.485,2.674 2.678,4.483 0.204,1.797 -0.432,3.649 -1.535,5.135 -1.095,1.511 -2.719,2.602 -4.493,3.309 -1.781,0.719 -3.714,1.079 -5.674,1.295 -7.844,0.852 -16.333,-0.281 -24.15,-3.809 -0.937,-0.487 -1.838,-1.081 -2.6,-1.824 -0.763,-0.732 -1.415,-1.625 -1.633,-2.645 -0.19,-1.011 0.197,-2.108 1.02,-2.767 0.81,-0.678 1.893,-0.988 2.968,-1.185 4.387,-0.691 8.977,-0.681 13.526,0.02 2.273,0.363 4.539,0.899 6.766,1.615 2.209,0.746 4.475,1.532 6.347,2.962 0.929,0.705 1.745,1.583 2.223,2.637 0.465,1.057 0.522,2.277 0.159,3.38 -0.384,1.099 -1.134,2.059 -2.038,2.837 -0.897,0.792 -1.942,1.422 -3.027,1.966 -8.95,3.94 -19.344,5.281 -29.568,3.789 -10.212,-1.477 -20.371,-5.782 -28.511,-12.955 l -0.024,0.382 c 4.664,-3.188 10.099,-5.291 15.766,-6.418 5.68,-1.116 11.583,-1.33 17.48,-0.834 5.903,0.469 11.804,1.567 17.706,2.872 2.951,0.652 5.911,1.355 8.88,2.06 2.931,0.713 5.954,1.596 8.225,3.611 1.118,1 2.033,2.257 2.506,3.676 0.479,1.408 0.458,2.991 -0.141,4.362 -0.562,1.392 -1.647,2.525 -2.883,3.408 -1.238,0.898 -2.659,1.538 -4.113,2.052 -1.46,0.52 -2.981,0.836 -4.528,1.089 -1.541,0.269 -3.097,0.466 -4.661,0.603 -3.128,0.276 -6.29,0.297 -9.445,0.064 -6.308,-0.462 -12.591,-1.947 -18.49,-4.458 -2.959,-1.222 -5.785,-2.798 -8.19,-4.924 -2.363,-2.096 -4.4,-4.865 -4.665,-8.066 -0.146,-1.924 0.334,-3.886 1.36,-5.513 1.042,-1.63 2.599,-2.878 4.284,-3.828 3.416,-1.883 7.339,-2.698 11.207,-2.941 7.795,-0.49 15.599,0.169 23.086,1.903 3.748,0.854 7.414,1.983 10.962,3.366 0.889,0.342 1.772,0.696 2.641,1.08 0.876,0.371 1.742,0.749 2.576,1.189 1.675,0.864 3.28,1.867 4.702,3.08 1.412,1.209 2.703,2.605 3.489,4.27 0.428,0.815 0.65,1.711 0.792,2.605 0.015,0.454 0.092,0.907 0.028,1.36 l -0.054,0.679 -0.137,0.666 c -0.415,1.774 -1.503,3.329 -2.87,4.532 -1.369,1.212 -2.984,2.136 -4.666,2.862 C 37.386,0.076 35.62,0.589 33.834,1.025 32.949,1.274 32.049,1.453 31.152,1.638 30.259,1.841 29.356,1.993 28.453,2.127 24.845,2.699 21.207,2.946 17.596,2.887 10.37,2.781 3.258,1.403 -3.339,-1.066 c -0.832,-0.292 -1.646,-0.622 -2.45,-0.976 -0.81,-0.339 -1.617,-0.681 -2.398,-1.077 -1.588,-0.74 -3.135,-1.536 -4.542,-2.539 -1.398,-1 -2.695,-2.168 -3.607,-3.593 -0.926,-1.408 -1.355,-3.127 -1.052,-4.766 0.268,-1.647 1.269,-3.087 2.53,-4.168 1.27,-1.087 2.766,-1.901 4.318,-2.531 1.552,-0.647 3.171,-1.084 4.806,-1.475 0.812,-0.212 1.627,-0.406 2.446,-0.573 0.818,-0.17 1.629,-0.368 2.451,-0.504 13.095,-2.473 26.279,-2.001 38.348,0.949 3.025,0.706 5.979,1.6 8.66,3.026 2.648,1.401 5.12,3.365 6.312,6.068 0.574,1.337 0.855,2.81 0.705,4.249 -0.125,1.444 -0.633,2.83 -1.335,4.082 -1.429,2.524 -3.734,4.397 -6.238,5.71 C 43.102,2.147 40.399,3.014 37.734,3.841 35.067,4.668 32.4,5.379 29.739,5.953 24.425,7.111 19.094,7.631 13.951,7.25 8.815,6.874 3.901,5.463 -0.374,3.169 -4.645,0.883 -8.265,-2.356 -10.644,-6.23 l -0.054,0.227 c 6.245,-3.736 13.078,-5.599 19.546,-6.033 6.488,-0.455 12.636,0.585 17.965,2.534 2.686,0.909 5.142,2.26 6.94,4.173 0.868,0.964 1.564,2.086 1.803,3.308 0.215,1.213 0.029,2.491 -0.585,3.511 -0.582,1.043 -1.513,1.814 -2.489,2.401 -0.987,0.582 -2.047,0.975 -3.1,1.272 C 28.327,5.462 27.27,5.631 26.232,5.748 25.199,5.892 24.184,5.955 23.199,6.006 15.271,6.333 9.303,4.405 5.551,2.838 3.653,2.049 2.283,1.296 1.368,0.791 0.466,0.26 0,0 0,0" /></g></g></g></g></svg>